<?xml version="1.0" encoding="UTF-8" standalone="no"?>
<!-- Created with Inkscape (http://www.inkscape.org/) -->
<svg
   xmlns:dc="http://purl.org/dc/elements/1.1/"
   xmlns:cc="http://web.resource.org/cc/"
   xmlns:rdf="http://www.w3.org/1999/02/22-rdf-syntax-ns#"
   xmlns:svg="http://www.w3.org/2000/svg"
   xmlns="http://www.w3.org/2000/svg"
   xmlns:sodipodi="http://sodipodi.sourceforge.net/DTD/sodipodi-0.dtd"
   xmlns:inkscape="http://www.inkscape.org/namespaces/inkscape"
   width="744.09448819"
   height="1052.3622047"
   id="svg3100"
   sodipodi:version="0.32"
   inkscape:version="0.45.1"
   inkscape:export-filename="/Users/cmalley/Downloads/faucet.png"
   inkscape:export-xdpi="90"
   inkscape:export-ydpi="90"
   sodipodi:docbase="/Users/cmalley/phet-workspace/simulations-java/simulations/ph-scale/assets"
   sodipodi:docname="faucet.svg"
   inkscape:output_extension="org.inkscape.output.svg.inkscape">
  <defs
     id="defs3102" />
  <sodipodi:namedview
     id="base"
     pagecolor="#ffffff"
     bordercolor="#666666"
     borderopacity="1.0"
     gridtolerance="10000"
     guidetolerance="10"
     objecttolerance="10"
     inkscape:pageopacity="0.0"
     inkscape:pageshadow="2"
     inkscape:zoom="0.50797409"
     inkscape:cx="363.37411"
     inkscape:cy="602.75663"
     inkscape:document-units="px"
     inkscape:current-layer="g4236"
     inkscape:window-width="701"
     inkscape:window-height="581"
     inkscape:window-x="20"
     inkscape:window-y="20" />
  <metadata
     id="metadata3105">
    <rdf:RDF>
      <cc:Work
         rdf:about="">
        <dc:format>image/svg+xml</dc:format>
        <dc:type
           rdf:resource="http://purl.org/dc/dcmitype/StillImage" />
      </cc:Work>
    </rdf:RDF>
  </metadata>
  <g
     inkscape:label="Layer 1"
     inkscape:groupmode="layer"
     id="layer1">
    <g
       style="display:inline"
       id="g4236"
       transform="matrix(5.4463524,0,0,5.4463524,-5353.6743,-280.8218)"
       inkscape:export-filename="/Users/cmalley/Downloads/faucet.png"
       inkscape:export-xdpi="90"
       inkscape:export-ydpi="90">
      <path
         id="path4208"
         d="M 1045.3788,86.637547 C 1039.9689,86.637547 1037.5209,91.558862 1037.5209,91.558862 C 1037.5209,91.558862 996.36055,83.9343 996.36055,93.967165 C 996.36055,104.90493 1037.8326,96.63724 1037.8326,96.63724 L 1037.8326,100.87795 L 1035.4005,100.87795 L 1030.3489,108.6264 C 1026.4103,111.19522 1024.7986,120.72028 1024.7986,120.72028 L 1007.0872,120.72028 L 1007.0872,115.27542 L 994.17771,115.27542 L 994.17771,157.00189 L 1007.0872,157.00189 L 1007.0872,150.03875 C 1013.6327,150.09578 1024.6357,149.33292 1027.2309,152.23763 C 1029.6654,154.96262 1033.223,154.7476 1046.439,154.75064 C 1059.6521,154.7537 1064.1439,155.63548 1068.0793,152.02821 C 1071.441,148.9468 1072.3981,147.94199 1077.8081,150.667 C 1082.3937,152.97678 1081.5929,153.81959 1081.363,158.99135 L 1077.0598,158.99135 L 1077.0598,171.08522 L 1107.7429,171.08522 L 1107.7429,158.99135 L 1102.9408,158.99135 C 1102.7253,150.44284 1102.8783,145.83821 1102.8785,138.57313 C 1102.8785,130.39813 1102.6758,130.67276 1097.2657,125.22275 C 1090.8795,118.78934 1071.322,120.24908 1071.3222,120.24908 C 1071.3222,120.24908 1067.6281,111.8268 1063.2772,108.94052 L 1056.9162,100.87795 L 1054.0473,100.87795 L 1054.0473,97.57962 C 1054.0473,97.57962 1096.0185,104.50069 1096.0185,93.600684 C 1096.0185,82.700691 1054.0473,91.192381 1054.0473,91.192381 C 1054.0473,91.192381 1050.7888,86.637541 1045.3788,86.637547 z "
         style="fill:#e9b800;fill-opacity:1;fill-rule:evenodd;stroke:#000000;stroke-width:1.82849681;stroke-linecap:butt;stroke-linejoin:miter;stroke-miterlimit:4;stroke-dasharray:none;stroke-opacity:1;display:inline" />
    </g>
  </g>
</svg>
