<?xml version="1.0" encoding="UTF-8" standalone="no"?>
<!-- Created with Inkscape (http://www.inkscape.org/) -->
<svg
   xmlns:dc="http://purl.org/dc/elements/1.1/"
   xmlns:cc="http://web.resource.org/cc/"
   xmlns:rdf="http://www.w3.org/1999/02/22-rdf-syntax-ns#"
   xmlns:svg="http://www.w3.org/2000/svg"
   xmlns="http://www.w3.org/2000/svg"
   xmlns:sodipodi="http://sodipodi.sourceforge.net/DTD/sodipodi-0.dtd"
   xmlns:inkscape="http://www.inkscape.org/namespaces/inkscape"
   width="744.09448819"
   height="1052.3622047"
   id="svg3100"
   sodipodi:version="0.32"
   inkscape:version="0.45.1"
   inkscape:export-filename="/Users/cmalley/Downloads/faucet.png"
   inkscape:export-xdpi="90"
   inkscape:export-ydpi="90"
   sodipodi:docbase="/Users/cmalley/phet-workspace/simulations-java/simulations/ph-scale/assets"
   sodipodi:docname="faucet.svg"
   inkscape:output_extension="org.inkscape.output.svg.inkscape">
  <defs
     id="defs3102" />
  <sodipodi:namedview
     id="base"
     pagecolor="#ffffff"
     bordercolor="#666666"
     borderopacity="1.0"
     gridtolerance="10000"
     guidetolerance="10"
     objecttolerance="10"
     inkscape:pageopacity="0.0"
     inkscape:pageshadow="2"
     inkscape:zoom="0.50797409"
     inkscape:cx="363.37411"
     inkscape:cy="586.52236"
     inkscape:document-units="px"
     inkscape:current-layer="g4236"
     inkscape:window-width="701"
     inkscape:window-height="581"
     inkscape:window-x="20"
     inkscape:window-y="20" />
  <metadata
     id="metadata3105">
    <rdf:RDF>
      <cc:Work
         rdf:about="">
        <dc:format>image/svg+xml</dc:format>
        <dc:type
           rdf:resource="http://purl.org/dc/dcmitype/StillImage" />
      </cc:Work>
    </rdf:RDF>
  </metadata>
  <g
     inkscape:label="Layer 1"
     inkscape:groupmode="layer"
     id="layer1">
    <g
       style="display:inline"
       id="g4236"
       transform="matrix(5.4463524,0,0,5.4463524,-5353.6743,-280.8218)"
       inkscape:export-filename="/Users/cmalley/Downloads/faucet.png"
       inkscape:export-xdpi="90"
       inkscape:export-ydpi="90">
      <path
         id="path4208"
         d="M 1041.3906,91.57422 C 1035.969,91.57422 1033.5156,95.246095 1033.5156,95.246095 C 1033.5156,95.246095 992.26564,89.557283 992.26564,97.04297 C 992.26564,105.20382 1033.828,99.035157 1033.828,99.035157 L 1033.828,102.19922 L 1031.3906,102.19922 L 1026.328,107.98047 C 1022.3808,109.89711 1020.7656,117.00391 1020.7656,117.00391 L 1003.0156,117.00391 L 1003.0156,112.94141 L 990.07804,112.94141 L 990.07804,144.07422 L 1003.0156,144.07422 L 1003.0156,138.87891 C 1009.5754,138.92146 1020.6024,138.35228 1023.2032,140.51953 C 1025.643,142.55269 1029.2084,142.39226 1042.4532,142.39453 C 1055.695,142.39681 1060.1966,143.05472 1064.1406,140.36328 C 1067.5096,138.06419 1068.4688,137.31448 1073.8906,139.34766 C 1078.4862,141.07102 1077.6836,141.69986 1077.4532,145.55859 L 1073.1406,145.55859 L 1073.1406,154.58203 L 1103.8906,154.58203 L 1103.8906,145.55859 L 1099.078,145.55859 C 1098.862,139.18041 1099.0154,135.74482 1099.0156,130.32422 C 1099.0156,124.22472 1098.8124,124.42962 1093.3906,120.36328 C 1086.9904,115.56321 1067.3904,116.65234 1067.3906,116.65234 C 1067.3906,116.65234 1063.6884,110.36834 1059.328,108.21484 L 1052.9532,102.19922 L 1050.078,102.19922 L 1050.078,99.738282 C 1050.078,99.738282 1092.1406,104.90221 1092.1406,96.769532 C 1092.1406,88.636867 1050.078,94.972657 1050.078,94.972657 C 1050.078,94.972657 1046.8124,91.574216 1041.3906,91.57422 z "
         style="fill:#e9b800;fill-opacity:1;fill-rule:evenodd;stroke:#000000;stroke-width:1.58113885;stroke-linecap:butt;stroke-linejoin:miter;stroke-miterlimit:4;stroke-dasharray:none;stroke-opacity:1;display:inline" />
    </g>
  </g>
</svg>
