<?xml version="1.0" encoding="UTF-8" standalone="no"?>
<!-- Created with Inkscape (http://www.inkscape.org/) -->
<svg
   xmlns:dc="http://purl.org/dc/elements/1.1/"
   xmlns:cc="http://web.resource.org/cc/"
   xmlns:rdf="http://www.w3.org/1999/02/22-rdf-syntax-ns#"
   xmlns:svg="http://www.w3.org/2000/svg"
   xmlns="http://www.w3.org/2000/svg"
   xmlns:sodipodi="http://sodipodi.sourceforge.net/DTD/sodipodi-0.dtd"
   xmlns:inkscape="http://www.inkscape.org/namespaces/inkscape"
   width="22.3104"
   height="35.188046"
   id="svg6155"
   sodipodi:version="0.32"
   inkscape:version="0.45.1"
   version="1.0"
   sodipodi:docbase="/Users/cmalley/phet-workspace/simulations-java/simulations/glaciers/data/glaciers/images"
   sodipodi:docname="boreholdDrill.svg"
   inkscape:output_extension="org.inkscape.output.svg.inkscape">
  <defs
     id="defs6157" />
  <sodipodi:namedview
     id="base"
     pagecolor="#ffffff"
     bordercolor="#666666"
     borderopacity="1.0"
     gridtolerance="10000"
     guidetolerance="10"
     objecttolerance="10"
     inkscape:pageopacity="0.0"
     inkscape:pageshadow="2"
     inkscape:zoom="16.113427"
     inkscape:cx="11.155205"
     inkscape:cy="17.59402"
     inkscape:document-units="px"
     inkscape:current-layer="layer1"
     inkscape:window-width="1061"
     inkscape:window-height="770"
     inkscape:window-x="103"
     inkscape:window-y="0" />
  <metadata
     id="metadata6160">
    <rdf:RDF>
      <cc:Work
         rdf:about="">
        <dc:format>image/svg+xml</dc:format>
        <dc:type
           rdf:resource="http://purl.org/dc/dcmitype/StillImage" />
      </cc:Work>
    </rdf:RDF>
  </metadata>
  <g
     inkscape:label="Layer 1"
     inkscape:groupmode="layer"
     id="layer1"
     transform="translate(-347.88827,-249.06985)">
    <g
       style="opacity:0.98000004;display:inline"
       id="g22141"
       transform="matrix(0.1093634,2.3803986e-4,-2.3803986e-4,0.1093634,203.37878,229.38206)"
       inkscape:export-filename="/home/archie/GlacierSim/presentation_figs/view_thickness.png"
       inkscape:export-xdpi="90"
       inkscape:export-ydpi="90">
      <g
         transform="matrix(-4.5015233e-2,-0.2719385,0.2719385,-4.5015233e-2,1322.9843,663.62144)"
         id="g22143">
        <path
           style="fill:#364045;fill-opacity:1;fill-rule:evenodd;stroke:#000000;stroke-width:21.98364067px;stroke-linecap:butt;stroke-linejoin:miter;stroke-opacity:1"
           d="M 1528.1733,577.98893 L 1535.6994,650.39315 L 1539.4625,741.85108 L 1538.0179,790.41013 L 1526.4059,784.67416 L 1509.358,783.76935 L 1499.9504,778.05325 L 1499.9504,751.37801 L 1498.0688,717.08125 L 1492.4242,678.97376 L 1475.4905,635.15015 L 1452.9121,602.75879 L 1452.9121,598.94804 L 1455.6872,591.21096 L 1451.0306,581.79967 L 1451.0306,537.97607 L 1451.0306,511.30083 L 1445.386,490.34171 L 1425.1262,470.05624 L 1417.1631,456.04497 L 1415.2816,442.70735 L 1420.9262,433.18048 L 1434.0969,425.55898 L 1454.7937,423.65361 L 1490.5427,433.18048 L 1541.344,440.80198 L 1597.7898,444.93963 L 1644.8281,454.1396 L 1656.1173,454.1396 L 1658.7978,478.90946 L 1633.5389,480.81484 L 1603.4344,480.81484 L 1575.2115,478.90946 L 1554.5147,484.62559 L 1537.5809,499.86858 L 1522.5287,520.8277 L 1522.5287,545.59756 L 1528.1733,577.98893 z "
           id="path22145"
           sodipodi:nodetypes="cccccccccccccccccccccccccccccccccccccc" />
        <path
           style="fill:#000000;fill-opacity:1;fill-rule:evenodd;stroke:#000000;stroke-width:21.98364067px;stroke-linecap:butt;stroke-linejoin:miter;stroke-opacity:1"
           d="M 1481.8949,462.65851 L 1483.8906,456.59565 L 1483.8906,446.49087 L 1473.9122,439.75435 C 1473.9122,439.75435 1463.934,437.7334 1459.9426,437.7334 C 1455.9513,437.7334 1443.3121,437.7334 1443.3121,437.7334 L 1437.9903,443.79627 L 1436.6599,451.88008 L 1439.986,462.65851 L 1446.6382,466.70041 L 1458.6121,466.70041 L 1469.2557,466.70041 L 1481.8949,462.65851 z "
           id="path22147" />
        <path
           style="fill:#317683;fill-opacity:1;fill-rule:evenodd;stroke:#000000;stroke-width:21.98364067px;stroke-linecap:butt;stroke-linejoin:miter;stroke-opacity:1"
           d="M 1538.9422,776.6266 L 1546.9249,818.39299 L 1553.5771,850.72825 L 1562.8902,850.72825 L 1568.2119,858.81212 L 1576.1946,870.93781 L 1577.5251,880.36891 L 1577.5251,888.45278 L 1573.5337,891.14738 L 1566.8815,895.18928 L 1561.5597,895.18928 L 1561.5597,911.35694 L 1524.3073,920.78804 L 1517.6552,947.7341 L 1512.3334,965.24906 L 1448.4722,974.68016 L 1447.1418,957.16519 L 1429.846,954.47059 L 1407.2285,945.0395 L 1344.6978,947.7341 C 1344.6978,947.7341 1327.402,943.6922 1322.0802,943.6922 C 1316.7585,943.6922 1302.1236,939.6503 1302.1236,939.6503 L 1280.8365,924.82994 L 1264.8713,915.39884 L 1270.193,843.99175 L 1276.8452,834.56066 L 1291.4801,823.78221 L 1354.0109,800.87805 L 1359.3326,792.79423 L 1359.3326,759.11165 L 1361.9935,720.03986 L 1363.3239,690.3992 L 1372.6371,645.93819 L 1379.2892,593.39337 L 1377.9588,578.57304 L 1372.6371,566.44731 L 1361.9935,558.36349 L 1356.6717,558.36349 L 1354.0109,558.36349 L 1348.6891,546.23777 L 1377.9588,550.27968 L 1381.9501,536.80665 L 1387.2719,509.86059 L 1391.2632,480.21992 L 1385.9414,465.39958 L 1373.9675,450.57925 L 1364.6544,447.88465 L 1348.6891,445.19003 L 1332.7238,446.53734 L 1328.7325,445.19003 L 1327.402,433.06431 L 1342.0369,426.32779 L 1354.0109,415.54937 L 1371.3066,396.68713 L 1380.6197,369.74106 L 1387.2719,337.40579 L 1389.9327,303.72322 L 1385.9414,271.38794 L 1377.9588,249.83109 L 1367.3152,237.70536 L 1417.872,243.09458 L 1427.1852,249.83109 L 1447.1418,257.91491 L 1465.7679,260.60952 L 1511.003,272.73525 L 1545.5944,275.42985 L 1561.5597,270.04064 L 1598.8121,280.81907 L 1673.3168,305.07052 L 1693.2735,315.84894 C 1693.2735,315.84894 1703.917,333.36389 1706.5779,338.7531 C 1709.2388,344.14231 1715.891,375.13028 1715.891,375.13028 L 1709.2388,414.20207 L 1695.9343,449.23195 L 1673.3168,470.78879 L 1662.6733,477.52531 L 1658.682,477.52531 L 1650.6993,455.96846 L 1439.1591,424.98049 L 1424.5243,430.3697 L 1415.2111,447.88465 L 1420.533,462.70498 L 1435.1678,476.17801 L 1448.4722,482.91452 L 1457.7853,497.73485 L 1460.4462,523.33362 L 1456.4549,562.40541 L 1456.4549,589.35147 L 1473.7506,625.72865 L 1492.3768,664.80044 L 1503.0203,715.99796 L 1507.0116,779.3212 L 1518.9856,784.71041 L 1538.9422,776.6266 z "
           id="path22149" />
        <path
           style="fill:#a2b4b7;fill-opacity:1;fill-rule:evenodd;stroke:#000000;stroke-width:21.98364067px;stroke-linecap:butt;stroke-linejoin:miter;stroke-opacity:1"
           d="M 1366.9271,237.68072 L 1340.8535,237.79453 L 1346.248,249.6308 L 1350.7435,258.73562 L 1355.2389,266.01948 L 1384.4593,266.01948 L 1377.6037,249.40318 L 1366.9271,237.68072 z "
           id="path22151"
           sodipodi:nodetypes="cccccccc" />
        <path
           style="fill:#4b585d;fill-opacity:1;fill-rule:evenodd;stroke:#000000;stroke-width:21.98364067px;stroke-linecap:butt;stroke-linejoin:miter;stroke-opacity:1"
           d="M 1388.9968,295.70344 L 1384.3671,266.35676 L 1355.0303,266.09483 L 1357.6532,295.66262 L 1388.9968,295.70344 z "
           id="path22153"
           sodipodi:nodetypes="ccccc" />
        <path
           style="fill:#000000;fill-opacity:1"
           id="path22155"
           d="M 1385.9544,270.83263 C 1385.9489,270.92205 1385.9499,271.0117 1385.9485,271.10124 C 1385.9476,271.23983 1385.9477,271.37843 1385.9476,271.51703 C 1385.9433,271.65358 1385.9505,271.79036 1385.9536,271.92642 C 1385.9552,272.04479 1386.0117,272.14134 1386.0498,272.24711 L 1385.1576,272.76413 C 1385.1129,272.64738 1385.048,272.54255 1385.0444,272.41127 C 1385.0391,272.27119 1385.0263,272.12977 1385.0338,271.9885 C 1385.0337,271.85022 1385.0338,271.71194 1385.0329,271.57366 C 1385.0315,271.48618 1385.0325,271.39856 1385.0269,271.3112 L 1385.9544,270.83263 z " />
        <path
           style="fill:#000000;fill-opacity:1"
           id="path22157"
           d="M 1385.2004,270.9508 C 1385.498,270.78578 1385.7956,270.62075 1386.0932,270.45573 C 1386.0227,270.4604 1386.0467,270.5734 1386.0283,270.61987 C 1386.0161,270.75415 1386.0187,270.8891 1386.0167,271.02375 C 1386.0165,271.1653 1386.0168,271.30685 1386.017,271.4484 C 1386.0167,271.60372 1386.0161,271.75902 1386.016,271.91433 C 1386.0051,272.05522 1386.0245,272.19475 1386.0334,272.33392 C 1386.0671,272.43309 1386.1375,272.51182 1386.1995,272.59422 C 1386.2953,272.68794 1386.3069,272.81321 1386.3466,272.93217 C 1386.368,273.07009 1386.3632,273.20992 1386.3662,273.34893 C 1386.3619,273.48513 1386.3686,273.62158 1386.3712,273.75731 C 1386.4008,273.86191 1386.4367,273.96705 1386.4727,274.07016 C 1386.4764,274.0914 1386.4802,274.11263 1386.4839,274.13387 L 1385.5758,274.62156 C 1385.573,274.60251 1385.5702,274.58346 1385.5673,274.56441 C 1385.5308,274.45779 1385.4956,274.34914 1385.4619,274.24194 C 1385.457,274.10237 1385.4445,273.96143 1385.4525,273.82071 C 1385.4506,273.68722 1385.4548,273.55323 1385.4392,273.42034 C 1385.4066,273.31206 1385.3991,273.20455 1385.3116,273.11963 C 1385.2415,273.0259 1385.1607,272.93983 1385.1266,272.82409 C 1385.115,272.67824 1385.0888,272.53305 1385.1044,272.38467 C 1385.1043,272.22977 1385.1037,272.07489 1385.1032,271.91999 C 1385.103,271.77833 1385.1029,271.63667 1385.1028,271.49502 C 1385.1036,271.35835 1385.1021,271.22162 1385.1078,271.08504 C 1385.1497,270.54784 1385.0985,270.78484 1386.0425,270.33119 L 1385.2004,270.9508 z " />
        <path
           style="fill:#a2b4b7;fill-opacity:1;fill-rule:evenodd;stroke:#000000;stroke-width:21.98364067px;stroke-linecap:butt;stroke-linejoin:miter;stroke-opacity:1"
           d="M 1389.298,295.30893 L 1357.3118,294.74559 L 1358.4244,309.95556 L 1357.3118,324.6022 L 1355.643,338.12217 L 1350.6364,356.71212 L 1343.961,373.04875 L 1335.0605,392.20204 L 1320.5972,408.53867 L 1303.9087,420.93198 L 1328.107,433.88862 L 1350.3583,422.05865 L 1371.6361,397.27203 L 1380.8147,379.10457 L 1387.6292,358.12046 L 1390.1324,338.96717 L 1390.4106,316.99721 L 1389.298,295.30893 z "
           id="path22159"
           sodipodi:nodetypes="cccccccccccccccccc" />
        <path
           style="fill:#4a575c;fill-opacity:1;fill-rule:evenodd;stroke:#000000;stroke-width:21.98364067px;stroke-linecap:butt;stroke-linejoin:miter;stroke-opacity:1"
           d="M 1341.4492,237.71823 L 1277.9144,236.77072 L 1276.2456,246.0657 L 1287.9275,255.36068 L 1292.0996,266.34565 L 1295.4373,279.86563 L 1297.9406,295.07559 L 1297.1061,312.82055 L 1292.0996,334.79051 L 1281.2521,361.83044 L 1267.9013,383.8004 L 1254.5506,396.47537 L 1242.8686,393.94038 L 1262.0604,402.39036 L 1274.5767,407.46035 L 1303.7815,420.98032 L 1317.1323,409.99534 L 1335.9364,394.64039 L 1342.2662,381.82044 L 1348.7985,366.50797 L 1352.2793,352.88547 L 1354.6394,339.613 L 1358.8115,316.34552 L 1357.3871,298.70308 L 1356.0638,281.94809 L 1355.8194,265.35568 L 1347.1715,251.13569 L 1341.4492,237.71823 z "
           id="path22161"
           sodipodi:nodetypes="cccccccccccccccccccccccccccc" />
        <path
           style="fill:#000000;fill-opacity:1;fill-rule:evenodd;stroke:#000000;stroke-width:21.98364067px;stroke-linecap:butt;stroke-linejoin:miter;stroke-opacity:1"
           d="M 1277.9589,241.26808 L 1285.886,245.49307 L 1291.7269,251.40806 L 1298.4023,269.99802 L 1300.9056,289.43297 L 1300.0712,312.24792 L 1297.5679,329.99289 L 1294.2302,348.58284 L 1285.0516,367.17281 L 1270.0319,386.60776 L 1256.6812,397.59274 L 1247.0853,397.17023 C 1247.0853,397.17023 1242.9132,395.90274 1242.9132,392.52275 C 1242.9132,389.14275 1248.3369,389.98775 1248.3369,389.98775 L 1264.191,371.39779 L 1277.5417,348.58284 L 1288.3892,312.24792 L 1286.7204,278.448 L 1283.3827,259.01304 L 1275.0385,249.29556 L 1277.9589,241.26808 z "
           id="path22163"
           sodipodi:nodetypes="ccccccccccccscccccccc" />
        <path
           style="fill:#364045;fill-opacity:1;fill-rule:evenodd;stroke:#000000;stroke-width:21.98364067px;stroke-linecap:butt;stroke-linejoin:miter;stroke-opacity:1"
           d="M 1328.9775,445.05002 L 1352.4818,445.70134 L 1373.5337,449.85523 L 1387.3871,466.75519 L 1391.7101,481.72081 L 1387.9101,505.88988 L 1381.7173,536.30981 L 1378.1382,550.07413 L 1360.6856,553.20978 L 1342.3283,549.82978 L 1316.8534,540.93197 L 1314.6415,533.98893 L 1325.3986,500.79946 L 1328.2739,487.58513 L 1330.2042,460.74867 L 1328.9775,445.05002 z "
           id="path22165"
           sodipodi:nodetypes="cccccccccccccccc" />
        <path
           style="fill:none;fill-rule:evenodd;stroke:#000000;stroke-width:21.98364067px;stroke-linecap:butt;stroke-linejoin:miter;stroke-opacity:1"
           d="M 1339.3796,548.6522 L 1347.3421,528.61578 L 1351.6854,509.06805 L 1353.1331,486.8325 L 1353.1331,464.35261 L 1352.6505,445.53792 L 1329.2455,444.80488 L 1329.9694,462.39784 L 1329.9694,473.39344 L 1327.5565,490.00901 L 1324.1784,505.40285 L 1314.5269,533.74706 L 1316.6984,541.07746 L 1339.3796,548.6522 z "
           id="path22167"
           sodipodi:nodetypes="cccccccccccccc" />
        <path
           style="fill:#4a575c;fill-opacity:1;fill-rule:evenodd;stroke:#000000;stroke-width:21.98364067px;stroke-linecap:butt;stroke-linejoin:miter;stroke-opacity:1"
           d="M 1274.7771,244.53894 L 1277.8105,251.6516 L 1283.7443,259.82437 L 1287.9147,290.52094 L 1288.378,307.23135 L 1287.4513,317.84157 L 1283.7443,332.61419 L 1279.2007,344.13249 L 1274.657,353.86503 L 1266.4364,368.63764 L 1259.5458,378.74821 L 1250.0552,387.10342 L 1244.1815,393.55124 L 1124.6092,362.12902 L 1097.2572,330.73721 L 1117.3154,332.58379 L 1126.4327,323.3509 L 1137.3735,299.34539 L 1148.3143,279.03304 L 1148.3143,256.87411 L 1139.197,247.64123 L 1122.7858,243.94807 L 1115.4919,243.94807 L 1130.0796,232.86861 L 1153.7847,227.32887 L 1274.7771,244.53894 z "
           id="path22169"
           sodipodi:nodetypes="cccccccccccccccccccccccccc" />
        <path
           style="fill:#b4b2ad;fill-opacity:1;fill-rule:evenodd;stroke:#000000;stroke-width:21.98364067px;stroke-linecap:butt;stroke-linejoin:miter;stroke-opacity:1"
           d="M 1117.3642,243.07938 L 1088.4443,257.29015 L 1085.1677,260.60822 L 1093.3971,262.87739 L 1096.9633,269.2352 L 1096.9633,274.54411 L 1097.6186,282.50747 L 1095.6527,289.80722 L 1091.2938,293.27941 L 1085.1677,297.10697 L 1077.304,295.77975 L 1077.304,303.74311 L 1079.9253,310.37925 L 1089.7549,320.99707 L 1100.7429,335.36195 L 1117.4766,332.51312 L 1127.0745,322.79354 L 1134.6668,310.03077 L 1144.3908,290.11545 L 1149.0575,276.14621 C 1148.6206,271.72212 1150.0299,265.25155 1148.9053,262.87394 L 1147.9059,256.47933 L 1139.3005,248.16058 L 1123.8309,242.02703 L 1117.3642,243.07938 z "
           id="path22171"
           sodipodi:nodetypes="ccccccccccccccccccccccccc" />
        <path
           style="fill:#e5e5e5;fill-opacity:1;fill-rule:evenodd;stroke:#000000;stroke-width:21.98364067px;stroke-linecap:butt;stroke-linejoin:miter;stroke-opacity:1"
           d="M 1091.86,260.41624 L 1052.7629,258.94985 L 1048.1292,264.81542 L 1045.8123,271.56083 L 1044.6539,277.71968 L 1048.1292,282.41213 L 1055.0797,287.10459 L 1084.0406,297.66262 L 1094.7561,290.91721 L 1096.7833,283.58525 L 1097.0729,270.97427 L 1091.86,260.41624 z "
           id="path22173"
           sodipodi:nodetypes="cccccccccccc" />
        <path
           style="fill:none;fill-rule:evenodd;stroke:#000000;stroke-width:21.98364067px;stroke-linecap:butt;stroke-linejoin:miter;stroke-opacity:1"
           d="M 1096.3507,284.45035 L 1055.0798,272.44066 L 1056.8174,266.57509 L 1057.4317,259.22228 L 1051.8092,259.67262 L 1047.55,266.57509 L 1044.8586,277.89148 L 1050.0716,278.64983 L 1055.2494,272.3695 L 1096.3507,284.45035 z "
           id="path22175"
           sodipodi:nodetypes="cccccccccc" />
        <path
           style="fill:#364045;fill-opacity:1;fill-rule:evenodd;stroke:#000000;stroke-width:21.98364067px;stroke-linecap:butt;stroke-linejoin:miter;stroke-opacity:1"
           d="M 1447.7885,258.36329 L 1511.7472,272.50572 L 1516.3579,261.63967 C 1487.4172,261.66339 1492.0622,261.68711 1479.9144,261.71083 L 1449.5262,247.2187 L 1447.7885,258.36329 z "
           id="path22177"
           sodipodi:nodetypes="cccccc" />
        <path
           style="fill:#000000;fill-opacity:1;fill-rule:evenodd;stroke:#000000;stroke-width:21.98364067px;stroke-linecap:butt;stroke-linejoin:miter;stroke-opacity:1"
           d="M 1671.5051,378.89737 C 1660.8564,378.06785 1647.7502,373.92027 1647.7502,373.92027 L 1645.2928,384.70399 L 1671.5051,388.85158 L 1671.5051,378.89737 z "
           id="path22179" />
        <path
           style="fill:#000000;fill-opacity:1;fill-rule:evenodd;stroke:#000000;stroke-width:21.98364067px;stroke-linecap:butt;stroke-linejoin:miter;stroke-opacity:1"
           d="M 1673.5463,358.52225 C 1662.8976,357.69273 1649.7914,353.54515 1649.7914,353.54515 L 1647.334,364.32887 L 1673.5463,368.47646 L 1673.5463,358.52225 z "
           id="path22181" />
        <path
           style="fill:#000000;fill-opacity:1;fill-rule:evenodd;stroke:#000000;stroke-width:21.98364067px;stroke-linecap:butt;stroke-linejoin:miter;stroke-opacity:1"
           d="M 1674.8634,338.51582 C 1664.2146,337.6863 1651.1084,333.53872 1651.1084,333.53872 L 1648.6511,344.32244 L 1674.8634,348.47003 L 1674.8634,338.51582 z "
           id="path22183" />
        <path
           style="fill:#000000;fill-opacity:1;fill-rule:evenodd;stroke:#000000;stroke-width:21.98364067px;stroke-linecap:butt;stroke-linejoin:miter;stroke-opacity:1"
           d="M 1674.8634,318.50939 C 1664.2146,317.67987 1651.1084,313.53229 1651.1084,313.53229 L 1648.6511,324.31601 L 1674.8634,328.4636 L 1674.8634,318.50939 z "
           id="path22185" />
        <path
           style="fill:#000000;fill-opacity:1;fill-rule:evenodd;stroke:#000000;stroke-width:21.98364067px;stroke-linecap:butt;stroke-linejoin:miter;stroke-opacity:1"
           d="M 1634.0342,371.85987 C 1623.3854,371.03035 1610.2793,366.88277 1610.2793,366.88277 L 1607.8219,377.66649 L 1634.0342,381.81408 L 1634.0342,371.85987 z "
           id="path22187" />
        <path
           style="fill:#000000;fill-opacity:1;fill-rule:evenodd;stroke:#000000;stroke-width:21.98364067px;stroke-linecap:butt;stroke-linejoin:miter;stroke-opacity:1"
           d="M 1634.0342,351.85344 C 1623.3854,351.02392 1610.2793,346.87634 1610.2793,346.87634 L 1607.8219,357.66006 L 1634.0342,361.80765 L 1634.0342,351.85344 z "
           id="path22189" />
        <path
           style="fill:#000000;fill-opacity:1;fill-rule:evenodd;stroke:#000000;stroke-width:21.98364067px;stroke-linecap:butt;stroke-linejoin:miter;stroke-opacity:1"
           d="M 1634.2961,331.84701 C 1623.6473,331.01749 1610.5412,326.86991 1610.5412,326.86991 L 1608.0838,337.65363 L 1634.2961,341.80122 L 1634.2961,331.84701 z "
           id="path22191" />
        <path
           style="fill:#52636e;fill-opacity:1;fill-rule:evenodd;stroke:#000000;stroke-width:21.98364067px;stroke-linecap:butt;stroke-linejoin:miter;stroke-opacity:1"
           d="M 1579.7619,418.7142 C 1570.7514,418.7142 1392.9989,386.36303 1392.9989,386.36303 L 1397.9137,376.40882 L 1403.6477,362.30703 L 1405.286,350.69379 L 1405.286,332.44441 L 1405.286,324.14924 L 1405.286,315.02455 L 1591.2298,349.86427 L 1594.5064,368.11365 L 1594.5064,382.21543 L 1593.6872,395.48771 L 1591.2298,408.75999 L 1579.7619,418.7142 z "
           id="path22193"
           sodipodi:nodetypes="cccccccccccccc" />
      </g>
      <g
         transform="matrix(-2.89738e-4,-0.6370119,0.4422201,-4.1736351e-4,1063.7412,1274.9729)"
         id="g22195">
        <path
           style="fill:#1a1a1a;fill-opacity:1;fill-rule:evenodd;stroke:none;stroke-width:5;stroke-miterlimit:4;stroke-opacity:1"
           d="M 1217.9855,644.36135 C 1216.1206,630.37461 1428.7191,636.90176 1428.7191,636.90176 L 1428.7191,651.82095 C 1428.7191,651.82095 1219.8382,658.25617 1217.9855,644.36135 z "
           id="path22197"
           sodipodi:nodetypes="cccz" />
        <path
           style="fill:#666666;fill-opacity:1;fill-rule:evenodd;stroke:none;stroke-width:5;stroke-miterlimit:4;stroke-opacity:1"
           d="M 1401.3389,635.91307 L 1413.4664,635.88941 L 1403.8818,652.8095 L 1389.4231,652.83316 L 1401.3389,635.91307 z "
           id="path22199"
           sodipodi:nodetypes="ccccc" />
        <path
           sodipodi:nodetypes="ccccc"
           id="path22201"
           d="M 1374.9972,635.91307 L 1387.1247,635.88941 L 1377.5401,652.8095 L 1363.0814,652.83316 L 1374.9972,635.91307 z "
           style="fill:#666666;fill-opacity:1;fill-rule:evenodd;stroke:none;stroke-width:5;stroke-miterlimit:4;stroke-opacity:1" />
        <path
           style="fill:#666666;fill-opacity:1;fill-rule:evenodd;stroke:none;stroke-width:5;stroke-miterlimit:4;stroke-opacity:1"
           d="M 1347.9561,635.91307 L 1360.0837,635.88941 L 1350.4991,652.8095 L 1336.0404,652.83316 L 1347.9561,635.91307 z "
           id="path22203"
           sodipodi:nodetypes="ccccc" />
        <path
           sodipodi:nodetypes="ccccc"
           id="path22205"
           d="M 1320.682,635.67996 L 1332.8096,635.6563 L 1323.225,652.57639 L 1308.7663,652.60005 L 1320.682,635.67996 z "
           style="fill:#666666;fill-opacity:1;fill-rule:evenodd;stroke:none;stroke-width:5;stroke-miterlimit:4;stroke-opacity:1" />
        <path
           style="fill:#666666;fill-opacity:1;fill-rule:evenodd;stroke:none;stroke-width:5;stroke-miterlimit:4;stroke-opacity:1"
           d="M 1293.4079,635.44685 L 1305.5354,635.42319 L 1295.9508,652.34328 L 1281.4921,652.36694 L 1293.4079,635.44685 z "
           id="path22207"
           sodipodi:nodetypes="ccccc" />
        <path
           sodipodi:nodetypes="ccccc"
           id="path22209"
           d="M 1267.5324,636.61242 L 1279.4269,636.12253 L 1270.5416,651.87706 L 1256.0829,651.20138 L 1267.5324,636.61242 z "
           style="fill:#666666;fill-opacity:1;fill-rule:evenodd;stroke:none;stroke-width:5;stroke-miterlimit:4;stroke-opacity:1" />
        <path
           style="fill:#666666;fill-opacity:1;fill-rule:evenodd;stroke:none;stroke-width:5;stroke-miterlimit:4;stroke-opacity:1"
           d="M 1242.3563,638.01109 L 1254.4838,637.28809 L 1245.5986,650.94461 L 1234.6365,649.80271 L 1242.3563,638.01109 z "
           id="path22211"
           sodipodi:nodetypes="ccccc" />
        <path
           sodipodi:nodetypes="ccccc"
           id="path22213"
           d="M 1222.7748,641.04155 L 1232.105,639.15299 L 1227.1827,648.38037 L 1219.018,646.07291 L 1222.7748,641.04155 z "
           style="fill:#666666;fill-opacity:1;fill-rule:evenodd;stroke:none;stroke-width:5;stroke-miterlimit:4;stroke-opacity:1" />
      </g>
    </g>
  </g>
</svg>
