<?xml version="1.0" encoding="UTF-8" standalone="no"?>
<!-- Created with Inkscape (http://www.inkscape.org/) -->
<svg
   xmlns:dc="http://purl.org/dc/elements/1.1/"
   xmlns:cc="http://creativecommons.org/ns#"
   xmlns:rdf="http://www.w3.org/1999/02/22-rdf-syntax-ns#"
   xmlns:svg="http://www.w3.org/2000/svg"
   xmlns="http://www.w3.org/2000/svg"
   xmlns:sodipodi="http://sodipodi.sourceforge.net/DTD/sodipodi-0.dtd"
   xmlns:inkscape="http://www.inkscape.org/namespaces/inkscape"
   width="101.31062"
   height="273.45828"
   id="svg2"
   sodipodi:version="0.32"
   inkscape:version="0.46"
   sodipodi:docname="gps_recevier.svg"
   inkscape:output_extension="org.inkscape.output.svg.inkscape"
   version="1.0"
   style="display:inline">
  <defs
     id="defs4">
    <inkscape:perspective
       sodipodi:type="inkscape:persp3d"
       inkscape:vp_x="0 : 526.18109 : 1"
       inkscape:vp_y="0 : 1000 : 0"
       inkscape:vp_z="744.09448 : 526.18109 : 1"
       inkscape:persp3d-origin="372.04724 : 350.78739 : 1"
       id="perspective10" />
    <inkscape:perspective
       id="perspective2467"
       inkscape:persp3d-origin="372.04724 : 350.78739 : 1"
       inkscape:vp_z="744.09448 : 526.18109 : 1"
       inkscape:vp_y="0 : 1000 : 0"
       inkscape:vp_x="0 : 526.18109 : 1"
       sodipodi:type="inkscape:persp3d" />
  </defs>
  <sodipodi:namedview
     id="base"
     pagecolor="#ffffff"
     bordercolor="#666666"
     borderopacity="1.0"
     gridtolerance="10000"
     guidetolerance="10"
     objecttolerance="10"
     inkscape:pageopacity="0.0"
     inkscape:pageshadow="2"
     inkscape:zoom="1.979899"
     inkscape:cx="133.14931"
     inkscape:cy="140.44951"
     inkscape:document-units="px"
     inkscape:current-layer="layer2"
     showgrid="false"
     inkscape:window-width="1280"
     inkscape:window-height="952"
     inkscape:window-x="0"
     inkscape:window-y="0" />
  <metadata
     id="metadata7">
    <rdf:RDF>
      <cc:Work
         rdf:about="">
        <dc:format>image/svg+xml</dc:format>
        <dc:type
           rdf:resource="http://purl.org/dc/dcmitype/StillImage" />
      </cc:Work>
    </rdf:RDF>
  </metadata>
  <g
     inkscape:groupmode="layer"
     id="layer2"
     inkscape:label="gps"
     style="display:inline"
     transform="translate(-322.33125,-394.32114)">
    <path
       style="fill:#b4b4b4;fill-opacity:0.49763034;fill-rule:evenodd;stroke:#000000;stroke-width:1px;stroke-linecap:butt;stroke-linejoin:miter;stroke-opacity:1"
       d="M 369.21076,396.77318 C 372.66213,404.52694 363.14984,447.28081 371.23106,454.85695 C 379.31228,462.4331 392.93433,449.14458 422.24376,474.04985 C 425.2212,487.65998 420.90991,640.59386 407.59655,653.857 C 390.04117,671.34616 357.03689,672.99787 335.37065,651.33163 C 327.43446,643.39544 320.21836,509.40519 323.75389,474.04985 C 323.75389,474.04985 331.83512,466.4737 333.85542,461.42294 C 336.05099,455.934 337.39095,415.96608 338.90618,398.28841 C 348.50263,394.2478 367.85771,393.73345 369.21076,396.77318 z"
       id="path2474"
       sodipodi:nodetypes="cscssszcs" />
    <path
       style="opacity:0.38197422;fill:#ffff00;fill-opacity:1;fill-rule:evenodd;stroke:#000000;stroke-width:1px;stroke-linecap:butt;stroke-linejoin:miter;stroke-opacity:1"
       d="M 422.24376,474.04985 C 425.2212,487.65998 420.90991,640.59386 407.59655,653.857 C 390.04117,671.34616 357.03689,672.99787 335.37065,651.33163 C 327.43446,643.39544 320.21836,509.40519 323.75389,474.04985 C 347.71914,461.70203 396.34111,464.69157 422.24376,474.04985 z"
       id="path2476"
       sodipodi:nodetypes="csscc" />
  </g>
  <g
     inkscape:groupmode="layer"
     id="layer3"
     inkscape:label="black"
     style="display:inline"
     transform="translate(-322.33125,-394.32114)">
    <path
       style="fill:#000000;fill-opacity:1;fill-rule:evenodd;stroke:#000000;stroke-width:0.99999994px;stroke-linecap:butt;stroke-linejoin:miter;stroke-opacity:1"
       d="M 335.24455,486.19245 C 340.6954,478.87135 407.09824,481.24827 410.45999,485.6237 C 414.67493,491.10958 412.91,535.10593 412.66501,547.33431 C 412.42001,559.56267 412.88396,598.96853 409.96998,602.21978 C 406.29453,606.32065 340.11615,606.53591 335.97956,603.3573 C 331.79453,600.14148 331.81453,564.68151 331.32453,547.04993 C 330.83453,529.41832 331.10609,491.75089 335.24455,486.19245 z"
       id="path3251"
       sodipodi:nodetypes="cssssss" />
    <path
       style="fill:#898989;fill-opacity:1;fill-rule:evenodd;stroke:#d4d4d4;stroke-width:1px;stroke-linecap:butt;stroke-linejoin:miter;stroke-opacity:1"
       d="M 337.97231,488.86355 C 343.02073,482.49634 404.52114,484.56356 407.6347,488.3689 C 411.53846,493.14 409.90383,531.40389 409.67693,542.03898 C 409.45001,552.67406 409.87971,586.94557 407.18087,589.7732 C 403.77677,593.33975 342.48425,593.52696 338.65306,590.76251 C 334.777,587.96569 334.79553,557.12595 334.3417,541.79165 C 333.88788,526.45734 334.13939,493.69775 337.97231,488.86355 z"
       id="path3249"
       sodipodi:nodetypes="cssssss" />
    <path
       style="opacity:1;fill:#000000;fill-opacity:1;fill-rule:evenodd;stroke:#000000;stroke-width:1px;stroke-linecap:butt;stroke-linejoin:miter;stroke-opacity:1;display:inline"
       d="M 327.625,605 C 329.81565,629.6551 332.54846,648.51722 335.375,651.34375 C 340.78406,656.75281 346.87566,660.69372 353.28125,663.3125 C 353.28977,663.18282 353.30472,663.06984 353.3125,662.9375 C 354.07012,650.05805 355.06932,624.30333 351.28125,619 C 348.02983,614.44801 339.16511,610.6187 327.625,605 z"
       id="path3253" />
    <path
       style="opacity:1;fill:#000000;fill-opacity:1;fill-rule:evenodd;stroke:#000000;stroke-width:1px;stroke-linecap:butt;stroke-linejoin:miter;stroke-opacity:1;display:inline"
       d="M 417.90625,605.03125 C 407.23333,610.18673 397.40928,614.75203 394.375,619 C 390.8545,623.92873 391.90962,649.59934 392.6875,663.5625 C 398.29013,661.29372 403.39315,658.0285 407.59375,653.84375 C 411.99084,649.46325 415.41137,629.8316 417.90625,605.03125 z"
       id="path3259" />
  </g>
</svg>
