<?xml version="1.0" encoding="iso-8859-1"?>
<!-- Generator: Adobe Illustrator 9.0, SVG Export Plug-In  -->
<!DOCTYPE svg PUBLIC "-//W3C//DTD SVG 20000303 Stylable//EN"   "http://www.w3.org/TR/2000/03/WD-SVG-20000303/DTD/svg-20000303-stylable.dtd" [
<!-- <!DOCTYPE svg PUBLIC "-//W3C//DTD SVG 20000303 Stylable//EN"   "svg-20000303-stylable.dtd" [ -->
	<!ENTITY st0 "display:none;fill-rule:nonzero;clip-rule:nonzero;fill:none;stroke:#C8C8C8;stroke-miterlimit:4;">
	<!ENTITY st1 "fill:#000000;stroke:none;">
	<!ENTITY st2 "fill:#E4F138;">
	<!ENTITY st3 "fill:#64C5DC;stroke:#000000;">
	<!ENTITY st4 "fill:none;stroke:#3DA537;stroke-width:3;">
	<!ENTITY st5 "fill:#64C5DC;stroke:none;">
	<!ENTITY st6 "fill:#D2CB70;stroke-dasharray:4;">
	<!ENTITY st7 "fill:#D95335;stroke:none;">
	<!ENTITY st8 "font-family:'Arial-BoldMT';">
	<!ENTITY st9 "font-size:8;">
	<!ENTITY st10 "font-size:9;">
	<!ENTITY st11 "fill:none;stroke-width:3;">
	<!ENTITY st12 "fill:none;stroke-width:4;">
	<!ENTITY st13 "fill:none;stroke-width:6;">
	<!ENTITY st14 "fill:#FB7D38;">
	<!ENTITY st15 "fill:#64C5DC;">
	<!ENTITY st16 "fill:none;">
	<!ENTITY st17 "display:inline;">
	<!ENTITY st18 "font-family:'ArialMT';">
	<!ENTITY st19 "fill:#000000;">
	<!ENTITY st20 "fill:#E4F138;stroke:none;">
	<!ENTITY st21 "font-size:10;">
	<!ENTITY st22 "font-size:12;">
	<!ENTITY st23 "font-size:14;">
	<!ENTITY st24 "font-size:24;">
	<!ENTITY st25 "fill-rule:nonzero;clip-rule:nonzero;stroke:#000000;stroke-miterlimit:4;">
	<!ENTITY st26 "stroke:none;">
	<!ENTITY st27 "fill:#1CA9C5;stroke:none;">
	<!ENTITY st28 "fill:none;stroke:#18979C;stroke-width:4;">
	<!ENTITY st29 "font-size:13.9994;">
	<!ENTITY st30 "fill:#D2CB70;stroke:none;">
]>
<svg  width="518.016pt" height="791.922pt" viewBox="0 0 518.016 791.922" xml:space="preserve">
	<g id="Main_x0020_Layer" style="&st25; &st18; &st21;">
		<path style="&st6;" d="M255,195v36h-81v-36h81z"/>
		<path style="&st30;" d="M291,231V78h-36v153h36z"/>
		<g>
			<path style="&st14;" d="M282,204h-36v18h36v-18z"/>
			<path style="&st7;" d="M255,213c0-2.485,4.029-4.5,9-4.5s9,2.015,9,4.5s-4.029,4.5-9,4.5s-9-2.015-9-4.5z"/>
		</g>
		<g style="&st26; &st10;">
			<path style="&st3;" d="M183,177v45h-36v-45h36z"/>
			<text transform="matrix(1 0 0 1 147 195)"><tspan x="0" y="0">Projector</tspan><tspan x="0" y="11">    on</tspan><tspan x="0" y="22">  ceiling</tspan></text>
			<path style="&st3;" d="M174,231v-9h-18v9h18z"/>
		</g>
		<g>
			<path style="&st2;" d="M453,366v-72h-27v72h27z"/>
			<text transform="matrix(0 -1 1 0 444 348)"><tspan x="0" y="0" style="&st26; &st22;">Sofa</tspan></text>
		</g>
		<path style="&st11;" d="M435,195l-45,36c-1.5-3-4.5-4.5-4.5-9c-1.5,0-3,0-3,0c-1.5-7.5-7.5-13.5-4.5-22.5"/>
		<path style="&st12;" d="M93,438h360"/>
		<text transform="matrix(1 0 0 1 318 42)" style="&st26;"><tspan x="0" y="0">Notes: </tspan><tspan x="0" y="12">   14 Lab seats</tspan><tspan x="0" y="24">   9 grad student cubicles</tspan><tspan x="0" y="36">   1 staff person cubicle (65 sq ft)</tspan><tspan x="0" y="48">   Entire floor is carpeted</tspan><tspan x="0" y="60">   All lab and study seats have</tspan><tspan x="0" y="72">       floor files and eye-height shelves</tspan><tspan x="0" y="96">Future plans:</tspan><tspan x="0" y="108">   Whiteboard has pull-down screen</tspan><tspan x="0" y="120">   Projector installed on ceiling</tspan></text>
		<path style="&st5;" d="M165,402c39.764,0,72-16.118,72-36c0-19.882-32.236-36-72-36c-39.764,0-72,16.118-72,36c0,19.882,32.236,36,72,36z"/>
		<text transform="matrix(1 0 0 1 129 438)"><tspan x="0" y="0" style="&st26; &st23;">WhiteBoard</tspan></text>
		<g>
			<path style="&st15;" d="M318,420v18h-54v-18h54z"/>
			<path style="&st4;" d="M264,438h54"/>
			<text transform="matrix(1 0 0 1 268 434)"><tspan x="0" y="0" style="&st26;">Bookshelf</tspan></text>
		</g>
		<g>
		</g>
		<text transform="matrix(1 0 0 1 318 24)"><tspan x="0" y="0" style="&st26; &st8; &st24;">HCIL-1 Redesign:</tspan></text>
		<path style="&st30;" d="M3,42v252h36V42H3z"/>
		<path style="&st30;" d="M291,42v36H39V42h252z"/>
		<path style="&st30;" d="M372,195v36h-81v-36h81z"/>
		<path style="&st30;" d="M336,231v72h36v-72h-36z"/>
		<path style="&st13;" d="M3,429v297h450V195H291V42H3v270"/>
		<path style="&st12;" d="M372,195v108"/>
		<text transform="matrix(0.0267 0.9996 -0.9996 0.0267 381 240)"><tspan x="0" y="0" style="&st26; &st29;">Food Area</tspan></text>
		<g>
			<path style="&st14;" d="M30,285v-36H12v36h18z"/>
			<path style="&st7;" d="M21,258c2.485,0,4.5,4.029,4.5,9s-2.015,9-4.5,9s-4.5-4.029-4.5-9s2.015-9,4.5-9z"/>
		</g>
		<g>
			<path style="&st14;" d="M30,231v-36H12v36h18z"/>
			<path style="&st7;" d="M21,204c2.485,0,4.5,4.029,4.5,9s-2.015,9-4.5,9s-4.5-4.029-4.5-9s2.015-9,4.5-9z"/>
		</g>
		<g>
			<path style="&st14;" d="M30,177v-36H12v36h18z"/>
			<path style="&st7;" d="M21,150c2.485,0,4.5,4.03,4.5,9c0,4.971-2.015,9-4.5,9s-4.5-4.029-4.5-9c0-4.97,2.015-9,4.5-9z"/>
		</g>
		<g>
			<path style="&st14;" d="M30,123V87H12v36h18z"/>
			<path style="&st7;" d="M21,96c2.485,0,4.5,4.03,4.5,9s-2.015,9-4.5,9s-4.5-4.03-4.5-9s2.015-9,4.5-9z"/>
		</g>
		<g>
			<path style="&st14;" d="M282,123V87h-18v36h18z"/>
			<path style="&st7;" d="M273,96c2.485,0,4.5,4.03,4.5,9s-2.015,9-4.5,9s-4.5-4.03-4.5-9s2.015-9,4.5-9z"/>
		</g>
		<g>
			<path style="&st14;" d="M282,177v-36h-18v36h18z"/>
			<path style="&st7;" d="M273,150c2.485,0,4.5,4.03,4.5,9c0,4.971-2.015,9-4.5,9s-4.5-4.029-4.5-9c0-4.97,2.015-9,4.5-9z"/>
		</g>
		<g>
			<path style="&st14;" d="M111,51H75v18h36V51z"/>
			<path style="&st7;" d="M84,60c0-2.485,4.029-4.5,9-4.5s9,2.015,9,4.5s-4.029,4.5-9,4.5s-9-2.015-9-4.5z"/>
		</g>
		<g>
			<path style="&st14;" d="M165,51h-36v18h36V51z"/>
			<path style="&st7;" d="M138,60c0-2.485,4.029-4.5,9-4.5s9,2.015,9,4.5s-4.029,4.5-9,4.5s-9-2.015-9-4.5z"/>
		</g>
		<g>
			<path style="&st14;" d="M219,51h-36v18h36V51z"/>
			<path style="&st7;" d="M192,60c0-2.485,4.029-4.5,9-4.5s9,2.015,9,4.5s-4.029,4.5-9,4.5s-9-2.015-9-4.5z"/>
		</g>
		<g>
			<path style="&st14;" d="M336,204h-36v18h36v-18z"/>
			<path style="&st7;" d="M309,213c0-2.485,4.029-4.5,9-4.5s9,2.015,9,4.5s-4.029,4.5-9,4.5s-9-2.015-9-4.5z"/>
		</g>
		<g>
			<path style="&st14;" d="M363,294v-36h-18v36h18z"/>
			<path style="&st7;" d="M354,267c2.485,0,4.5,4.029,4.5,9s-2.015,9-4.5,9s-4.5-4.029-4.5-9s2.015-9,4.5-9z"/>
		</g>
		<g>
			<path style="&st26;" d="M453,294v-27h-27v27h27z"/>
			<text transform="matrix(1 0 0 1 426 285)"><tspan x="0" y="0" style="&st27;">Fridge</tspan></text>
		</g>
		<text transform="matrix(1 0 0 1 44 659)" style="&st26;"><tspan x="0" y="0">Anne</tspan><tspan x="0" y="12">Rose</tspan></text>
		<path style="&st12;" d="M3,546h36"/>
		<text transform="matrix(1 0 0 1 363 447)"><tspan x="0" y="0" style="&st26;">Full-height divider</tspan></text>
		<path style="&st5;" d="M75,375c4.971,0,9-4.029,9-9s-4.029-9-9-9s-9,4.029-9,9s4.029,9,9,9z"/>
		<path style="&st5;" d="M138,330c4.971,0,9-4.029,9-9s-4.029-9-9-9c-4.97,0-9,4.029-9,9s4.03,9,9,9z"/>
		<path style="&st5;" d="M102,339c4.971,0,9-4.029,9-9s-4.029-9-9-9c-4.97,0-9,4.029-9,9s4.03,9,9,9z"/>
		<path style="&st5;" d="M237,348c4.971,0,9-4.029,9-9s-4.029-9-9-9c-4.97,0-9,4.029-9,9s4.03,9,9,9z"/>
		<path style="&st5;" d="M138,420c4.971,0,9-4.029,9-9s-4.029-9-9-9c-4.97,0-9,4.029-9,9s4.03,9,9,9z"/>
		<path style="&st5;" d="M201,420c4.971,0,9-4.029,9-9s-4.029-9-9-9c-4.97,0-9,4.029-9,9s4.03,9,9,9z"/>
		<path style="&st5;" d="M102,411c4.971,0,9-4.029,9-9s-4.029-9-9-9c-4.97,0-9,4.029-9,9s4.03,9,9,9z"/>
		<path style="&st5;" d="M237,402c4.971,0,9-4.029,9-9s-4.029-9-9-9c-4.97,0-9,4.029-9,9s4.03,9,9,9z"/>
		<path style="&st5;" d="M255,375c4.971,0,9-4.029,9-9s-4.029-9-9-9c-4.97,0-9,4.029-9,9s4.03,9,9,9z"/>
		<path style="&st5;" d="M201,330c4.971,0,9-4.029,9-9s-4.029-9-9-9c-4.97,0-9,4.029-9,9s4.03,9,9,9z"/>
		<path style="&st20;" d="M312.667,370.685c0,1.333,0.667,3.333,0,4c-2,1.333-4,3.333-6,5.333c-0.667,1.333-0.667,3.333-0.667,4c-2.667,2.667-2.667,7.333-4.667,8.667c-2.667,1.333-8,2-9.333-0.667c-4-5.333-2-12.667-2-19.333c2.667,0.667,6-1.333,6.667,0.667
			c1.333,6,4,12,5.333,18c0,1.333,2,1.333,2,1.333c4,0.667,9.333,2.667,12-0.667c3.333-4,2-10,0-15.333c-0.667,0.667-1.333-1.333-2-0.667"/>
		<path style="&st20;" d="M293.333,353.185c0-1.333-0.667-3.333,0-4c2-1.333,4-3.333,6-5.333c0.667-1.333,0.667-3.333,0.667-4c2.667-2.667,2.667-7.333,4.667-8.667c2.667-1.333,8-2,9.333,0.667c4,5.333,2,12.667,2,19.333c-2.667-0.667-6,1.333-6.667-0.667
			c-1.333-6-4-12-5.333-18c0-1.333-2-1.333-2-1.333c-4-0.667-9.333-2.667-12,0.667c-3.333,4-2,10,0,15.333c0.667-0.667,1.333,1.333,2,0.667"/>
		<text transform="matrix(1 0 0 1 291 357.8516)" style="&st26;"><tspan x="0" y="0">comfy</tspan><tspan x="0" y="12">chairs</tspan></text>
		<path style="&st12;" d="M201,618v108"/>
		<path style="&st12;" d="M282,618v108"/>
		<path style="&st12;" d="M363,654v72"/>
		<text transform="matrix(1 0 0 1 210 663)" style="&st26;"><tspan x="0" y="0">Grad</tspan><tspan x="0" y="12">Student</tspan></text>
		<g>
			<path style="&st15;" d="M291,42v36h-36V42h36z"/>
			<text transform="matrix(1 0 0 1 260 59)"><tspan x="0" y="0" style="&st26; &st10;">Printer</tspan></text>
		</g>
		<text transform="matrix(1 0 0 1 210 474)" style="&st26;"><tspan x="0" y="0">Grad</tspan><tspan x="0" y="12">Student</tspan></text>
		<text transform="matrix(1 0 0 1 120 474)" style="&st26;"><tspan x="0" y="0">Grad</tspan><tspan x="0" y="12">Student</tspan></text>
		<text transform="matrix(1 0 0 1 300 474)" style="&st26;"><tspan x="0" y="0">Grad</tspan><tspan x="0" y="12">Student</tspan></text>
		<text transform="matrix(1 0 0 1 381 474)" style="&st26;"><tspan x="0" y="0">Grad</tspan><tspan x="0" y="12">Student</tspan></text>
		<text transform="matrix(1 0 0 1 390 663)" style="&st26;"><tspan x="0" y="0">Grad</tspan><tspan x="0" y="12">Student</tspan></text>
		<text transform="matrix(1 0 0 1 300 663)" style="&st26;"><tspan x="0" y="0">Grad</tspan><tspan x="0" y="12">Student</tspan></text>
		<path style="&st12;" d="M273,438v108"/>
		<path style="&st12;" d="M183,438v108"/>
		<path style="&st12;" d="M408,537l45,0.042"/>
		<path style="&st12;" d="M408,627h45"/>
		<path style="&st12;" d="M363,438v72"/>
		<g>
		</g>
		<g>
			<path style="&st15;" d="M372,420v18h-54v-18h54z"/>
			<path style="&st4;" d="M318,438h54"/>
			<text transform="matrix(1 0 0 1 322 434)"><tspan x="0" y="0" style="&st26;">Bookshelf</tspan></text>
		</g>
		<g>
			<path style="&st15;" d="M399,402v36h-27v-36h27z"/>
			<text transform="matrix(1 0 0 1 372 429)"><tspan x="0" y="0" style="&st26;">Files</tspan></text>
			<path style="&st4;" d="M372,438h27"/>
		</g>
		<g>
			<path style="&st15;" d="M426,402v36h-27v-36h27z"/>
			<text transform="matrix(1 0 0 1 399 429)"><tspan x="0" y="0" style="&st26;">Files</tspan></text>
			<path style="&st4;" d="M399,438h27"/>
		</g>
		<g>
			<path style="&st15;" d="M453,402v36h-27v-36h27z"/>
			<text transform="matrix(1 0 0 1 426 429)"><tspan x="0" y="0" style="&st26;">Files</tspan></text>
			<path style="&st4;" d="M426,438h27"/>
		</g>
		<path style="&st12;" d="M93,438v108"/>
		<path style="&st12;" d="M120,618v108"/>
		<text transform="matrix(1 0 0 1 129 663)" style="&st26;"><tspan x="0" y="0">Grad</tspan><tspan x="0" y="12">Student</tspan></text>
		<path style="&st5;" d="M48,276c4.971,0,9-4.029,9-9s-4.029-9-9-9c-4.97,0-9,4.029-9,9s4.03,9,9,9z"/>
		<path style="&st5;" d="M246,168c4.971,0,9-4.029,9-9c0-4.97-4.029-9-9-9c-4.97,0-9,4.03-9,9c0,4.971,4.03,9,9,9z"/>
		<path style="&st5;" d="M264,249c4.971,0,9-4.029,9-9s-4.029-9-9-9c-4.97,0-9,4.029-9,9s4.03,9,9,9z"/>
		<path style="&st5;" d="M327,285c4.971,0,9-4.029,9-9s-4.029-9-9-9c-4.97,0-9,4.029-9,9s4.03,9,9,9z"/>
		<path style="&st5;" d="M318,249c4.971,0,9-4.029,9-9s-4.029-9-9-9c-4.97,0-9,4.029-9,9s4.03,9,9,9z"/>
		<path style="&st5;" d="M246,114c4.971,0,9-4.03,9-9s-4.029-9-9-9c-4.97,0-9,4.03-9,9s4.03,9,9,9z"/>
		<path style="&st5;" d="M201,96c4.971,0,9-4.03,9-9s-4.029-9-9-9c-4.97,0-9,4.03-9,9s4.03,9,9,9z"/>
		<path style="&st5;" d="M147,96c4.971,0,9-4.03,9-9s-4.029-9-9-9c-4.97,0-9,4.03-9,9s4.03,9,9,9z"/>
		<path style="&st5;" d="M93,96c4.971,0,9-4.03,9-9s-4.029-9-9-9c-4.97,0-9,4.03-9,9s4.03,9,9,9z"/>
		<path style="&st5;" d="M48,114c4.971,0,9-4.03,9-9s-4.029-9-9-9c-4.97,0-9,4.03-9,9s4.03,9,9,9z"/>
		<path style="&st5;" d="M48,168c4.971,0,9-4.029,9-9c0-4.97-4.029-9-9-9c-4.97,0-9,4.03-9,9c0,4.971,4.03,9,9,9z"/>
		<path style="&st5;" d="M48,222c4.971,0,9-4.029,9-9s-4.029-9-9-9c-4.97,0-9,4.029-9,9s4.03,9,9,9z"/>
		<g>
			<path style="&st15;" d="M21,546H3v-54h18v54z"/>
			<path style="&st4;" d="M3,492v54"/>
			<text transform="matrix(0 1 -1 0 7 496)"><tspan x="0" y="0" style="&st26;">Bookshelf</tspan></text>
		</g>
		<g>
			<path style="&st15;" d="M21,492H3v-54h18v54z"/>
			<path style="&st4;" d="M3,438v54"/>
			<text transform="matrix(0 1 -1 0 6.9998 442)"><tspan x="0" y="0" style="&st26;">Bookshelf</tspan></text>
		</g>
		<text transform="matrix(1 0 0 1 3 24)"><tspan x="0" y="0" style="&st26; &st24;">Design C</tspan></text>
		<g>
			<path style="&st14;" d="M228,216.6h-36v5.4h36v-5.4z"/>
			<path style="&st7;" d="M201,219.3c0-0.746,4.029-1.35,9-1.35s9,0.604,9,1.35s-4.029,1.35-9,1.35s-9-0.604-9-1.35z"/>
		</g>
		<g>
			<path style="&st14;" d="M228,204h-36v5.4h36V204z"/>
			<path style="&st7;" d="M201,206.7c0-0.746,4.029-1.35,9-1.35s9,0.604,9,1.35s-4.029,1.35-9,1.35s-9-0.604-9-1.35z"/>
		</g>
		<path style="&st5;" d="M210,195c4.971,0,9-4.029,9-9s-4.029-9-9-9c-4.97,0-9,4.029-9,9s4.03,9,9,9z"/>
		<path style="&st5;" d="M210,249c4.971,0,9-4.029,9-9s-4.029-9-9-9c-4.97,0-9,4.029-9,9s4.03,9,9,9z"/>
		<text transform="matrix(1 0 0 1 210 258)" style="&st26;"><tspan x="0" y="0">Flat-panel</tspan><tspan x="0" y="12">displays</tspan></text>
		<path style="&st16;" d="M228,249c0,0,0-18-9-27"/>
		<path style="&st28;" d="M93,438h144"/>
		<text transform="matrix(1 0 0 1 390 573)" style="&st26;"><tspan x="0" y="0">Grad</tspan><tspan x="0" y="12">Student</tspan></text>
		<g>
		</g>
		<text transform="matrix(1 0 0 1 129 258)" style="&st26;"><tspan x="0" y="0">Extension</tspan><tspan x="0" y="12">removable</tspan></text>
		<path style="&st16;" d="M156,249c0,0,9-9,27-18"/>
		<g style="&st27;">
			<path style="&st19;" d="M453,258v-27h-27v27h27z"/>
			<text transform="matrix(1 0 0 1 426 240)"><tspan x="0" y="0">Micro</tspan><tspan x="0" y="12">wave</tspan></text>
		</g>
		<g>
			<path style="&st15;" d="M399,402v36h-27v-36h27z"/>
			<text transform="matrix(1 0 0 1 372 429)"><tspan x="0" y="0" style="&st26;">Files</tspan></text>
			<path style="&st4;" d="M372,438h27"/>
		</g>
		<g>
			<path style="&st15;" d="M246,420v18h18v-18h-18z"/>
			<text transform="matrix(1 0 0 1 246 429)"><tspan x="0" y="0" style="&st26; &st9;">VCR</tspan></text>
			<path style="&st4;" d="M246,438h18"/>
		</g>
	</g>
	<g id="Grid_x0020_Layer" style="&st0;">
		<path style="&st17;" d="M3,690h450"/>
		<path style="&st17;" d="M3,150l288,0"/>
		<path style="&st17;" d="M3,186h288"/>
		<path style="&st17;" d="M3,294h450"/>
		<path style="&st17;" d="M3,330h450"/>
		<path style="&st17;" d="M3,366h450"/>
		<path style="&st17;" d="M3,402h450"/>
		<path style="&st17;" d="M3,438h450"/>
		<path style="&st17;" d="M3,474h450"/>
		<path style="&st17;" d="M3,510h450"/>
		<path style="&st17;" d="M3,546h450"/>
		<path style="&st17;" d="M3,582h450"/>
		<path style="&st17;" d="M3,618h450"/>
		<path style="&st17;" d="M3,654h450"/>
		<path style="&st17;" d="M39,726V42"/>
		<path style="&st17;" d="M3,258h450"/>
		<path style="&st17;" d="M3,222h450"/>
		<path style="&st17;" d="M3,114h288"/>
		<path style="&st17;" d="M3,78h288"/>
		<path style="&st17;" d="M75,726V42"/>
		<path style="&st17;" d="M111,726V42"/>
		<path style="&st17;" d="M147,726V42"/>
		<path style="&st17;" d="M183,726V42"/>
		<path style="&st17;" d="M219,726V42"/>
		<path style="&st17;" d="M255,725V41"/>
		<path style="&st17;" d="M291,726V195"/>
		<path style="&st17;" d="M327,726V195"/>
		<path style="&st17;" d="M363,726V195"/>
		<path style="&st17;" d="M399,726V195"/>
		<path style="&st17;" d="M435,726V195"/>
		<text transform="matrix(1 0 0 1 7.5 743)" style="&st17;"><tspan x="0" y="0" style="&st1; &st18; &st21;">Grid lines are at 2 feet</tspan></text>
	</g>
</svg>
