<?xml version="1.0" encoding="UTF-8" standalone="no"?>
<!-- Created with Inkscape (http://www.inkscape.org/) -->
<svg
   xmlns:dc="http://purl.org/dc/elements/1.1/"
   xmlns:cc="http://web.resource.org/cc/"
   xmlns:rdf="http://www.w3.org/1999/02/22-rdf-syntax-ns#"
   xmlns:svg="http://www.w3.org/2000/svg"
   xmlns="http://www.w3.org/2000/svg"
   xmlns:sodipodi="http://sodipodi.sourceforge.net/DTD/sodipodi-0.dtd"
   xmlns:inkscape="http://www.inkscape.org/namespaces/inkscape"
   width="744.09448819"
   height="1052.3622047"
   id="svg4979"
   sodipodi:version="0.32"
   inkscape:version="0.45.1"
   sodipodi:docbase="/home/archie/Desktop"
   sodipodi:docname="thickness_tool.svg"
   inkscape:output_extension="org.inkscape.output.svg.inkscape">
  <defs
     id="defs4981" />
  <sodipodi:namedview
     id="base"
     pagecolor="#ffffff"
     bordercolor="#666666"
     borderopacity="1.0"
     gridtolerance="10000"
     guidetolerance="10"
     objecttolerance="10"
     inkscape:pageopacity="0.0"
     inkscape:pageshadow="2"
     inkscape:zoom="7.9195959"
     inkscape:cx="53.291031"
     inkscape:cy="1015.0586"
     inkscape:document-units="px"
     inkscape:current-layer="layer1"
     inkscape:window-width="748"
     inkscape:window-height="755"
     inkscape:window-x="1713"
     inkscape:window-y="15" />
  <metadata
     id="metadata4984">
    <rdf:RDF>
      <cc:Work
         rdf:about="">
        <dc:format>image/svg+xml</dc:format>
        <dc:type
           rdf:resource="http://purl.org/dc/dcmitype/StillImage" />
      </cc:Work>
    </rdf:RDF>
  </metadata>
  <g
     inkscape:label="Layer 1"
     inkscape:groupmode="layer"
     id="layer1">
    <path
       id="rect2208"
       d="M 29.66621,59.6301 C 30.65175,59.6301 31.44746,57.14267 31.44746,54.03635 C 31.44746,52.11049 31.13286,50.42004 30.66621,49.41135 C 31.31725,49.07483 31.74699,48.42024 31.72871,47.66135 C 31.7028,46.58553 30.78477,45.73019 29.66621,45.7551 L 29.57246,45.7551 C 28.48817,45.82629 27.64104,46.7101 27.66621,47.7551 C 27.683,48.45236 28.08502,49.04841 28.66621,49.3801 C 28.19315,50.38576 27.88496,52.09492 27.88496,54.03635 C 27.88496,57.14266 28.68067,59.63009 29.66621,59.6301 z "
       style="fill:#550e0e;fill-opacity:1;stroke:#0e0707;stroke-width:1.00000012;stroke-linecap:round;stroke-linejoin:miter;stroke-miterlimit:4;stroke-dasharray:none;stroke-opacity:1" />
    <path
       style="fill:#908c7c;fill-opacity:1;stroke:#0e0707;stroke-width:1.02999997;stroke-linecap:round;stroke-linejoin:miter;stroke-miterlimit:4;stroke-dasharray:none;stroke-opacity:1"
       d="M 10.825154,34.690699 C 10.825154,40.894487 13.20277,45.889015 16.156212,45.889015 L 28.861405,45.840334 C 31.886682,45.840334 32.020771,46.524412 31.943329,43.147148 C 31.727736,43.183096 31.366442,38.025908 30.995612,38.011034 C 30.624781,37.996159 30.244458,43.123593 29.67861,43.123593 L 17.704349,43.167564 C 14.920979,43.167564 12.680057,38.740301 12.680057,33.241246 L 12.680057,16.064528 C 12.680057,10.565477 14.920979,6.1382147 17.704349,6.1382147 L 30.132754,6.0094418 C 30.592109,6.0094418 30.902231,10.738146 31.214384,10.736605 C 31.526537,10.735064 31.840676,6.0032782 32.031986,6.0675499 C 31.987392,3.5890213 31.495498,3.9695387 29.344293,3.9695298 L 16.156212,4.115575 C 13.20277,4.115575 10.825154,9.1101081 10.825154,15.313891 L 10.825154,34.690699 z "
       id="rect1889"
       sodipodi:nodetypes="ccccsccccccsccccc" />
  </g>
</svg>
