<?xml version="1.0" encoding="UTF-8" standalone="no"?>
<!-- Created with Inkscape (http://www.inkscape.org/) -->
<svg
   xmlns:dc="http://purl.org/dc/elements/1.1/"
   xmlns:cc="http://web.resource.org/cc/"
   xmlns:rdf="http://www.w3.org/1999/02/22-rdf-syntax-ns#"
   xmlns:svg="http://www.w3.org/2000/svg"
   xmlns="http://www.w3.org/2000/svg"
   xmlns:sodipodi="http://sodipodi.sourceforge.net/DTD/sodipodi-0.dtd"
   xmlns:inkscape="http://www.inkscape.org/namespaces/inkscape"
   width="11.073089"
   height="49.748634"
   id="svg4903"
   sodipodi:version="0.32"
   inkscape:version="0.45.1"
   sodipodi:docbase="/Users/cmalley/phet-workspace/simulations-java/simulations/glaciers/data/glaciers/images"
   sodipodi:docname="thermometer.svg"
   inkscape:output_extension="org.inkscape.output.svg.inkscape"
   version="1.0">
  <defs
     id="defs4905" />
  <sodipodi:namedview
     id="base"
     pagecolor="#ffffff"
     bordercolor="#666666"
     borderopacity="1.0"
     gridtolerance="10000"
     guidetolerance="10"
     objecttolerance="10"
     inkscape:pageopacity="0.0"
     inkscape:pageshadow="2"
     inkscape:zoom="7.5981984"
     inkscape:cx="5.5365442"
     inkscape:cy="24.874317"
     inkscape:document-units="px"
     inkscape:current-layer="g17830"
     inkscape:window-width="827"
     inkscape:window-height="581"
     inkscape:window-x="196"
     inkscape:window-y="82" />
  <metadata
     id="metadata4908">
    <rdf:RDF>
      <cc:Work
         rdf:about="">
        <dc:format>image/svg+xml</dc:format>
        <dc:type
           rdf:resource="http://purl.org/dc/dcmitype/StillImage" />
      </cc:Work>
    </rdf:RDF>
  </metadata>
  <g
     inkscape:label="Layer 1"
     inkscape:groupmode="layer"
     id="layer1"
     transform="translate(-89.34119,-64.06426)">
    <g
       style="opacity:0.98000004;display:inline"
       id="g17830"
       transform="matrix(2.0792077,-1.1525235,1.1525235,2.0792077,-2150.4873,363.41819)"
       inkscape:export-filename="/home/archie/GlacierSim/presentation_figs/view_thickness.png"
       inkscape:export-xdpi="90"
       inkscape:export-ydpi="90">
      <path
         id="path16912"
         d="M 887.02988,347.95441 C 886.44108,347.64823 885.54221,348.16452 885.01446,349.11199 L 877.97105,361.7571 C 877.30085,361.86967 876.67204,362.29101 876.30727,362.9459 C 875.70255,364.03156 876.05415,365.35072 877.09211,365.89046 C 878.13005,366.43019 879.46323,365.98712 880.06795,364.90146 C 880.45339,364.20947 880.45108,363.42304 880.1294,362.80363 L 887.14006,350.21731 C 887.66781,349.26984 887.61867,348.26058 887.02988,347.95441 z "
         style="fill:#ffffff;fill-opacity:1;stroke:#2c2c2c;stroke-width:0.42065051;stroke-linecap:round;stroke-miterlimit:4;stroke-dasharray:none;stroke-opacity:1" />
      <path
         sodipodi:nodetypes="ccsssccc"
         id="path16914"
         d="M 882.00925,354.55189 L 877.96037,361.82088 C 877.30869,361.93058 876.69718,362.34061 876.34229,362.97774 C 875.75397,364.03396 876.09541,365.31702 877.10443,365.84172 C 878.11346,366.36641 879.40985,365.93503 879.99817,364.87881 C 880.37316,364.20559 880.37118,363.44062 880.0586,362.8382 L 884.07562,355.6264 C 883.32431,355.22714 883.36405,355.2478 882.00925,354.55189 z "
         style="fill:#f4002a;fill-opacity:1;stroke:none;stroke-width:1;stroke-linecap:round;stroke-miterlimit:4;stroke-dasharray:none;stroke-opacity:1" />
    </g>
  </g>
</svg>
