<?xml version="1.0" encoding="UTF-8" standalone="no"?>
<!-- Created with Inkscape (http://www.inkscape.org/) -->
<svg
   xmlns:dc="http://purl.org/dc/elements/1.1/"
   xmlns:cc="http://web.resource.org/cc/"
   xmlns:rdf="http://www.w3.org/1999/02/22-rdf-syntax-ns#"
   xmlns:svg="http://www.w3.org/2000/svg"
   xmlns="http://www.w3.org/2000/svg"
   xmlns:sodipodi="http://sodipodi.sourceforge.net/DTD/sodipodi-0.dtd"
   xmlns:inkscape="http://www.inkscape.org/namespaces/inkscape"
   width="744.09448819"
   height="1052.3622047"
   id="svg3193"
   sodipodi:version="0.32"
   inkscape:version="0.45.1"
   sodipodi:docbase="/Users/cmalley/phet-workspace/simulations-java/simulations/ph-scale/assets"
   sodipodi:docname="faucet.svg"
   inkscape:output_extension="org.inkscape.output.svg.inkscape">
  <defs
     id="defs3195" />
  <sodipodi:namedview
     id="base"
     pagecolor="#ffffff"
     bordercolor="#666666"
     borderopacity="1.0"
     gridtolerance="10000"
     guidetolerance="10"
     objecttolerance="10"
     inkscape:pageopacity="0.0"
     inkscape:pageshadow="2"
     inkscape:zoom="0.71838385"
     inkscape:cx="183.14067"
     inkscape:cy="748.00346"
     inkscape:document-units="px"
     inkscape:current-layer="g4236"
     inkscape:window-width="701"
     inkscape:window-height="581"
     inkscape:window-x="60"
     inkscape:window-y="60" />
  <metadata
     id="metadata3198">
    <rdf:RDF>
      <cc:Work
         rdf:about="">
        <dc:format>image/svg+xml</dc:format>
        <dc:type
           rdf:resource="http://purl.org/dc/dcmitype/StillImage" />
      </cc:Work>
    </rdf:RDF>
  </metadata>
  <g
     inkscape:label="Layer 1"
     inkscape:groupmode="layer"
     id="layer1">
    <g
       style="display:inline"
       id="g4236"
       transform="matrix(10.845107,0,0,8.7524189,-10960.251,-637.47386)"
       inkscape:export-filename="/home/archie/pH_Scale/graphics/mockup_v6_specs.png"
       inkscape:export-xdpi="90"
       inkscape:export-ydpi="90">
      <path
         id="path4208"
         d="M 1044.1875,97.875 C 1041.4767,97.875 1040.25,100.8125 1040.25,100.8125 C 1040.25,100.8125 1019.625,96.261451 1019.625,102.25 C 1019.625,108.77868 1040.4062,103.84375 1040.4062,103.84375 L 1040.4062,106.375 L 1039.1875,106.375 L 1036.6562,111 C 1034.6826,112.53331 1033.875,118.21875 1033.875,118.21875 L 1025,118.21875 L 1025,114.96875 L 1018.5312,114.96875 L 1018.5312,139.875 L 1025,139.875 L 1025,135.71875 C 1028.2799,135.75279 1033.7934,135.29745 1035.0938,137.03125 C 1036.3137,138.65778 1038.0964,138.52943 1044.7188,138.53125 C 1051.3397,138.53307 1053.5905,139.0594 1055.5625,136.90625 C 1057.247,135.06698 1057.7266,134.46721 1060.4375,136.09375 C 1062.7353,137.47244 1062.334,137.97551 1062.2188,141.0625 L 1060.0625,141.0625 L 1060.0625,148.28125 L 1075.4375,148.28125 L 1075.4375,141.0625 L 1073.0312,141.0625 C 1072.9232,135.95995 1072.9999,133.21148 1073,128.875 C 1073,123.9954 1072.8984,124.15932 1070.1875,120.90625 C 1066.9874,117.06619 1057.1874,117.9375 1057.1875,117.9375 C 1057.1875,117.9375 1055.3364,112.9103 1053.1562,111.1875 L 1049.9688,106.375 L 1048.5312,106.375 L 1048.5312,104.40625 C 1048.5312,104.40625 1069.5625,108.53739 1069.5625,102.03125 C 1069.5625,95.525118 1048.5312,100.59375 1048.5312,100.59375 C 1048.5312,100.59375 1046.8984,97.874997 1044.1875,97.875 z "
         style="fill:#e9b800;fill-opacity:1;fill-rule:evenodd;stroke:#000000;stroke-width:1;stroke-linecap:butt;stroke-linejoin:miter;stroke-miterlimit:4;stroke-dasharray:none;stroke-opacity:1;display:inline"
         inkscape:export-filename="/Users/cmalley/phet-workspace/simulations-java/simulations/ph-scale/data/ph-scale/images/faucet.png"
         inkscape:export-xdpi="90"
         inkscape:export-ydpi="90" />
      <path
         id="path4219"
         d="M 1040.4414,106.37792 L 1048.6525,106.37792"
         style="fill:none;fill-rule:evenodd;stroke:#000000;stroke-width:1px;stroke-linecap:butt;stroke-linejoin:miter;stroke-opacity:1"
         inkscape:export-filename="/Users/cmalley/phet-workspace/simulations-java/simulations/ph-scale/data/ph-scale/images/faucet.png"
         inkscape:export-xdpi="90"
         inkscape:export-ydpi="90" />
      <path
         id="path4221"
         d="M 1036.84,110.84364 L 1053.1183,110.84364"
         style="fill:none;fill-rule:evenodd;stroke:#000000;stroke-width:1px;stroke-linecap:butt;stroke-linejoin:miter;stroke-opacity:1"
         inkscape:export-filename="/Users/cmalley/phet-workspace/simulations-java/simulations/ph-scale/data/ph-scale/images/faucet.png"
         inkscape:export-xdpi="90"
         inkscape:export-ydpi="90" />
      <path
         id="path4225"
         d="M 1025.0274,135.90931 L 1025.0274,117.75831"
         style="fill:none;fill-rule:evenodd;stroke:#000000;stroke-width:1px;stroke-linecap:butt;stroke-linejoin:miter;stroke-opacity:1"
         inkscape:export-filename="/Users/cmalley/phet-workspace/simulations-java/simulations/ph-scale/data/ph-scale/images/faucet.png"
         inkscape:export-xdpi="90"
         inkscape:export-ydpi="90" />
      <path
         id="path4227"
         d="M 1062.1938,141.09532 L 1073.2861,141.09532"
         style="fill:none;fill-rule:evenodd;stroke:#000000;stroke-width:1px;stroke-linecap:butt;stroke-linejoin:miter;stroke-opacity:1"
         inkscape:export-filename="/Users/cmalley/phet-workspace/simulations-java/simulations/ph-scale/data/ph-scale/images/faucet.png"
         inkscape:export-xdpi="90"
         inkscape:export-ydpi="90" />
    </g>
  </g>
</svg>
