<?xml version="1.0" encoding="UTF-8" standalone="no"?>
<!-- Generator: Adobe Illustrator 13.0.2, SVG Export Plug-In . SVG Version: 6.00 Build 14948)  -->
<svg
   xmlns:dc="http://purl.org/dc/elements/1.1/"
   xmlns:cc="http://creativecommons.org/ns#"
   xmlns:rdf="http://www.w3.org/1999/02/22-rdf-syntax-ns#"
   xmlns:svg="http://www.w3.org/2000/svg"
   xmlns="http://www.w3.org/2000/svg"
   xmlns:sodipodi="http://sodipodi.sourceforge.net/DTD/sodipodi-0.dtd"
   xmlns:inkscape="http://www.inkscape.org/namespaces/inkscape"
   version="1.1"
   id="Layer_1"
   x="0px"
   y="0px"
   width="461.858px"
   height="585.699px"
   viewBox="0 0 461.858 585.699"
   enable-background="new 0 0 461.858 585.699"
   xml:space="preserve"
   sodipodi:version="0.32"
   inkscape:version="0.46"
   sodipodi:docname="ray-gun-narrow-barrel.svg"
   inkscape:output_extension="org.inkscape.output.svg.inkscape"><metadata
   id="metadata90"><rdf:RDF><cc:Work
       rdf:about=""><dc:format>image/svg+xml</dc:format><dc:type
         rdf:resource="http://purl.org/dc/dcmitype/StillImage" /></cc:Work></rdf:RDF></metadata><defs
   id="defs88"><inkscape:perspective
     sodipodi:type="inkscape:persp3d"
     inkscape:vp_x="0 : 292.84949 : 1"
     inkscape:vp_y="0 : 1000 : 0"
     inkscape:vp_z="461.858 : 292.84949 : 1"
     inkscape:persp3d-origin="230.929 : 195.23299 : 1"
     id="perspective92" /></defs><sodipodi:namedview
   inkscape:window-height="701"
   inkscape:window-width="678"
   inkscape:pageshadow="2"
   inkscape:pageopacity="0.0"
   guidetolerance="10.0"
   gridtolerance="10.0"
   objecttolerance="10.0"
   borderopacity="1.0"
   bordercolor="#666666"
   pagecolor="#ffffff"
   id="base"
   showgrid="false"
   inkscape:zoom="0.85026613"
   inkscape:cx="264.66085"
   inkscape:cy="292.84949"
   inkscape:window-x="454"
   inkscape:window-y="52"
   inkscape:current-layer="Layer_1" />
<g
   id="g3"
   inkscape:export-filename="/Users/cmalley/Downloads/ray-gun.png"
   inkscape:export-xdpi="90"
   inkscape:export-ydpi="90">
	<path
   fill="#3E5FFF"
   stroke="#231F20"
   stroke-width="4"
   d="M74.892,458.988l82.786-74.07l-86.021-33.455l-2.517,6.246   c-21.185,29.658-64.967,89.684-55.787,144.764s102.394,75.559,112.986,79.09c8.606,2.869,14.416,6.67,16.292-17.005"
   id="path5" />
	<path
   fill="#E54848"
   stroke="#231F20"
   stroke-width="4"
   d="M142.501,564.201c0.434-5.463,0.657-12.39,0.657-21.128   c0-46.606-7.769-127.814,4.236-147.588l-2.649-0.377c-22.185-3.237-32.699-1.98-57.493-11.711   c-24.793-9.73-10.592,4.237-14.829,50.138s-14.124,83.327,5.649,97.45c19.772,14.123,45.194,37.428,62.143,33.896L142.501,564.201z   "
   id="path7" />
	<g
   id="g9">
		<path
   fill="none"
   stroke="#C4C4C4"
   stroke-width="6"
   d="M74.402,415.835c23.096,15.347,35.255,19.042,67.497,22.669"
   id="path11" />
		<path
   fill="none"
   stroke="#3F3F3F"
   stroke-width="6"
   d="M75.133,411.689c23.096,15.347,35.255,19.042,67.497,22.669"
   id="path13" />
	</g>
	<g
   id="g15">
		<path
   fill="none"
   stroke="#C4C4C4"
   stroke-width="6"
   d="M71.375,452.228c23.096,15.347,35.255,19.042,67.497,22.669"
   id="path17" />
		<path
   fill="none"
   stroke="#3F3F3F"
   stroke-width="6"
   d="M72.106,448.082c23.096,15.347,35.255,19.042,67.497,22.669"
   id="path19" />
	</g>
	<g
   id="g21">
		<path
   fill="none"
   stroke="#C4C4C4"
   stroke-width="6"
   d="M66.458,485.94c26.102,21.038,39.843,26.104,76.28,31.075"
   id="path23" />
		<path
   fill="none"
   stroke="#3F3F3F"
   stroke-width="6"
   d="M67.284,480.257c26.102,21.039,39.843,26.104,76.28,31.077"
   id="path25" />
	</g>
	<path
   fill="#3F3F3F"
   stroke="#3F3F3F"
   stroke-width="2"
   d="M43.715,533.434c-9.723-14.912-3.156-17.155-13.279-32.731   c-10.832-16.667,7.113-66.193,14.228-88.742l0.01,0.514c-10.949,22.628-27.737,70.804-21.897,89.052s5.474,17.882,20.438,32.846   L43.715,533.434z"
   id="path27" />
	<path
   fill="none"
   stroke="#231F20"
   stroke-width="4"
   d="M142.501,564.201c0.433-5.463,0.657-12.39,0.657-21.128   c0-46.606-7.769-127.814,4.236-147.588l-2.649-0.377c-22.185-3.237-32.7-1.98-57.493-11.711s-10.592,4.237-14.829,50.138   s-14.124,83.327,5.649,97.45c19.772,14.123,45.193,37.428,62.143,33.896L142.501,564.201z"
   id="path29" />
</g>
<path
   fill="#E54848"
   stroke="#231F20"
   stroke-width="4"
   d="M47.255,307.738C12.219,299.708,2,294.329,2,275.35v-3.588  c0-18.978,10.219-22.357,45.255-30.387"
   id="path31"
   inkscape:export-filename="/Users/cmalley/Downloads/ray-gun.png"
   inkscape:export-xdpi="90"
   inkscape:export-ydpi="90" />
<line
   fill="none"
   stroke="#231F20"
   stroke-width="2"
   x1="17.088"
   y1="247.404"
   x2="24.218"
   y2="299.61"
   id="line33"
   inkscape:export-filename="/Users/cmalley/Downloads/ray-gun.png"
   inkscape:export-xdpi="90"
   inkscape:export-ydpi="90" />
<line
   fill="none"
   stroke="#231F20"
   stroke-width="2"
   x1="34.991"
   y1="243.923"
   x2="42.902"
   y2="305.076"
   id="line35"
   inkscape:export-filename="/Users/cmalley/Downloads/ray-gun.png"
   inkscape:export-xdpi="90"
   inkscape:export-ydpi="90" />
<line
   fill="none"
   stroke="#FFC7D7"
   stroke-width="2"
   x1="15.588"
   y1="248.96"
   x2="22.719"
   y2="300.044"
   id="line37"
   inkscape:export-filename="/Users/cmalley/Downloads/ray-gun.png"
   inkscape:export-xdpi="90"
   inkscape:export-ydpi="90" />
<line
   fill="none"
   stroke="#FFC7D7"
   stroke-width="2"
   x1="33.492"
   y1="243.554"
   x2="41.403"
   y2="303.394"
   id="line39"
   inkscape:export-filename="/Users/cmalley/Downloads/ray-gun.png"
   inkscape:export-xdpi="90"
   inkscape:export-ydpi="90" />
<path
   fill="none"
   stroke="#231F20"
   stroke-width="2"
   d="M47.255,306.325C12.219,298.296,2,292.916,2,273.938v-3.588  c0-18.978,10.219-22.357,45.255-30.387"
   id="path41"
   inkscape:export-filename="/Users/cmalley/Downloads/ray-gun.png"
   inkscape:export-xdpi="90"
   inkscape:export-ydpi="90" />
<g
   id="g43"
   inkscape:export-filename="/Users/cmalley/Downloads/ray-gun.png"
   inkscape:export-xdpi="90"
   inkscape:export-ydpi="90">
	<polygon
   fill="#3E5FFF"
   stroke="#231F20"
   stroke-width="4"
   points="302.988,252.155 380.36,239.155 380.36,309.958    302.988,299.958  "
   id="polygon45" />
	<path
   fill="#E54848"
   stroke="#231F20"
   stroke-width="4"
   d="M272.118,390.949c35.036-28.165,45.255-47.037,45.255-113.609v-12.586   c0-66.569-10.219-78.425-45.255-106.59"
   id="path47" />
	<path
   fill="none"
   stroke="#231F20"
   stroke-width="2"
   d="M272.118,390.949c35.036-28.165,45.255-47.037,45.255-113.609v-12.586   c0-66.569-10.219-78.425-45.255-106.59"
   id="path49" />
	<path
   fill="#FFF8F8"
   stroke="#FF8FB4"
   stroke-width="2"
   d="M277.447,174.063c19.917,22.694,30.385,72.25,32.382,99.324   l-2.713-39.361c-2.351-31.863-10.441-41.614-29.547-60.057L277.447,174.063z"
   id="path51" />
	<polygon
   fill="#FFF8F8"
   stroke="#C2C9FF"
   stroke-width="2"
   points="325.817,254.551 362.185,249.579 360.93,263.742    325.082,262.85  "
   id="polygon53" />
</g>
<g
   id="g55"
   transform="matrix(1,0,0,0.65,0,96.094775)"
   inkscape:export-filename="/Users/cmalley/Downloads/ray-gun.png"
   inkscape:export-xdpi="90"
   inkscape:export-ydpi="90">
	<path
   d="M 411.542,459.109 C 428.33,475.807 445.598,510.428 459.858,548.41 L 459.858,0.703 C 445.597,38.685 428.33,73.306 411.542,90.005 L 411.542,459.109 z"
   id="path57"
   style="fill:#3e5fff;stroke:#231f20;stroke-width:4" />
	<path
   d="M 412.431,459.602 C 377.395,414.834 367.176,384.837 367.176,279.021 L 367.176,259.016 C 367.176,153.204 372.234,129.79 412.431,89.592"
   id="path59"
   style="fill:#e54848;stroke:#231f20;stroke-width:4" />
	<path
   d="M 382.411,170.999 C 386.04,133.803 399.748,147.891 406.163,159.041 C 407.23,160.896 407.214,111.992 407.065,111.321 C 405.714,105.208 408.121,103.156 402.741,109.87 C 387.469,128.922 381.156,142.641 378.653,172.179 C 378.653,176.262 378.653,179.961 380.134,178.112 C 381.617,176.263 382.104,174.033 382.411,170.999 z"
   id="path61"
   style="fill:#fff8f8;stroke:#ff8fb4;stroke-width:2" />
	<path
   d="M 453.186,43.548 L 453.186,75.315 L 453.446,80.794 C 461.881,259.403 455.939,84.37 442.673,99.282 C 431.901,111.428 427.159,121.414 421.988,140.712 C 416.817,160.01 416.856,139.228 416.856,135.13 L 416.856,103.331 C 416.856,97.123 417.606,97.808 419.685,95.465 C 429.646,84.745 439.707,66.667 448.596,46.236 C 451.003,41.119 450.069,35.685 451.793,37.305 C 453.518,38.924 452.855,39.635 453.186,43.548 z"
   id="path63"
   style="fill:#fff8f8;stroke:#c2c9ff;stroke-width:2" />
</g>
<path
   fill="#3E5FFF"
   stroke="#231F20"
   stroke-width="4"
   d="M270.372,405.741c-93-21-170.776-19.35-221.776-80.35V223.722  c51-61,128.776-59.35,221.776-80.35V405.741z"
   id="path65"
   inkscape:export-filename="/Users/cmalley/Downloads/ray-gun.png"
   inkscape:export-xdpi="90"
   inkscape:export-ydpi="90" />
<path
   fill="#FFF8F8"
   stroke="#C2C9FF"
   stroke-width="2"
   d="M85.794,201.306c27.78-13.719,97.763-41.822,139.092-40.414  c13.685,0.466,23.867-4.259,33.107-4.9l1.795,0.257c5.489,1.782,4.223,2.037,4.223,5.857c0,79.709-0.42,9.059-4.499,9.059  l-6.673-0.268c-9.02,0.513-15.569-1.793-28.927-2.166c-40.345-1.126-108.566,20.559-135.685,31.535L85.794,201.306z"
   id="path67"
   inkscape:export-filename="/Users/cmalley/Downloads/ray-gun.png"
   inkscape:export-xdpi="90"
   inkscape:export-ydpi="90" />
<g
   id="g69"
   inkscape:export-filename="/Users/cmalley/Downloads/ray-gun.png"
   inkscape:export-xdpi="90"
   inkscape:export-ydpi="90">
	<path
   fill="#E54848"
   stroke="#231F20"
   stroke-width="4"
   d="M73.718,336.167c25.913,20.558,58.584,32.478,93.241,42.721   l-3.366-10.711c-34.807-12.429-60.321-25.022-91.011-58.803l-1.429-1.096c-3.92-3.69-5.43-7.689-6.308,4.649   c-0.877,12.337,3.015,16.731,6.755,20.993L73.718,336.167z"
   id="path71" />
	<path
   fill="#FFF8F8"
   stroke="#231F20"
   stroke-width="4"
   d="M80.313,317.542c-0.779,10.954-0.028,16.874,2.151,25.067"
   id="path73" />
	<path
   fill="#FFF8F8"
   stroke="#231F20"
   stroke-width="4"
   d="M102.468,336.48c-0.599,8.412,0.25,12.979,2.56,19.314"
   id="path75" />
	<path
   fill="#FFF8F8"
   stroke="#231F20"
   stroke-width="4"
   d="M126.409,352.109c-0.442,6.214,0.488,9.607,2.914,14.339"
   id="path77" />
	<path
   fill="none"
   stroke="#FFC7D7"
   stroke-width="2"
   d="M77.313,314.542c-0.779,10.954-0.028,16.874,2.151,25.067"
   id="path79" />
	<path
   fill="none"
   stroke="#FFC7D7"
   stroke-width="2"
   d="M99.468,333.48c-0.599,8.412,0.25,12.979,2.56,19.314"
   id="path81" />
	<path
   fill="none"
   stroke="#FFC7D7"
   stroke-width="2"
   d="M123.409,349.109c-0.442,6.214,0.488,9.607,2.914,14.339"
   id="path83" />
	<path
   fill="none"
   stroke="#231F20"
   stroke-width="4"
   d="M73.718,336.167c25.913,20.558,58.584,32.478,93.241,42.721l-3.366-10.711   c-34.807-12.429-60.321-25.022-91.011-58.803l-1.429-1.096c-3.92-3.69-5.43-7.689-6.308,4.649   c-0.877,12.337,3.015,16.731,6.755,20.993L73.718,336.167z"
   id="path85" />
</g>
</svg>