<?xml version="1.0" encoding="utf-8"?>
<!-- Generator: Adobe Illustrator 14.0.0, SVG Export Plug-In . SVG Version: 6.00 Build 43363)  -->
<!DOCTYPE svg PUBLIC "-//W3C//DTD SVG 1.1//EN" "http://www.w3.org/Graphics/SVG/1.1/DTD/svg11.dtd">
<svg version="1.1" id="Layer_1" xmlns="http://www.w3.org/2000/svg" xmlns:xlink="http://www.w3.org/1999/xlink" x="0px" y="0px"
	 width="792px" height="612px" viewBox="0 0 792 612" enable-background="new 0 0 792 612" xml:space="preserve">
<g>
	<g>
		<linearGradient id="SVGID_1_" gradientUnits="userSpaceOnUse" x1="378.1841" y1="407.6699" x2="413.3145" y2="407.6699">
			<stop  offset="0" style="stop-color:#808080"/>
			<stop  offset="0.3515" style="stop-color:#F2F2F2"/>
			<stop  offset="0.4625" style="stop-color:#D4D4D4"/>
			<stop  offset="0.6199" style="stop-color:#AFAFAF"/>
			<stop  offset="0.7668" style="stop-color:#959595"/>
			<stop  offset="0.8979" style="stop-color:#858585"/>
			<stop  offset="1" style="stop-color:#808080"/>
		</linearGradient>
		<path fill="url(#SVGID_1_)" stroke="#010101" d="M378.184,397.502v14.18c0,3.399,7.865,6.156,17.566,6.156
			s17.564-2.757,17.564-6.156v-14.18"/>
		<ellipse fill="#BDBEC0" stroke="#010101" cx="395.749" cy="397.503" rx="17.565" ry="6.157"/>
	</g>
	<linearGradient id="SVGID_2_" gradientUnits="userSpaceOnUse" x1="347.397" y1="376.6016" x2="444.585" y2="376.6016">
		<stop  offset="0" style="stop-color:#CC7C29"/>
		<stop  offset="0.3515" style="stop-color:#CCCCCC"/>
		<stop  offset="0.4313" style="stop-color:#CCBDAD"/>
		<stop  offset="0.5652" style="stop-color:#CCA67E"/>
		<stop  offset="0.6932" style="stop-color:#CC9459"/>
		<stop  offset="0.8118" style="stop-color:#CC873F"/>
		<stop  offset="0.9176" style="stop-color:#CC7F2F"/>
		<stop  offset="1" style="stop-color:#CC7C29"/>
	</linearGradient>
	<path fill="url(#SVGID_2_)" stroke="#010101" d="M444.585,339.738v56.691c0,9.407-21.756,17.034-48.594,17.034
		c-26.837,0-48.594-7.627-48.594-17.034v-56.691"/>
	<linearGradient id="SVGID_3_" gradientUnits="userSpaceOnUse" x1="347.5059" y1="287.498" x2="444.6943" y2="287.498">
		<stop  offset="0" style="stop-color:#1A1A1A"/>
		<stop  offset="0.3515" style="stop-color:#CCCCCC"/>
		<stop  offset="0.462" style="stop-color:#9D9D9D"/>
		<stop  offset="0.5887" style="stop-color:#6E6E6E"/>
		<stop  offset="0.7097" style="stop-color:#4A4A4A"/>
		<stop  offset="0.8219" style="stop-color:#2F2F2F"/>
		<stop  offset="0.9221" style="stop-color:#1F1F1F"/>
		<stop  offset="1" style="stop-color:#1A1A1A"/>
	</linearGradient>
	<path fill="url(#SVGID_3_)" stroke="#010101" d="M347.506,217.367v123.227c0,9.408,21.756,17.035,48.594,17.035
		c26.838,0,48.594-7.627,48.594-17.035V217.367"/>
	<ellipse fill="#636466" stroke="#000000" cx="396.1" cy="217.075" rx="48.594" ry="17.033"/>
	<ellipse fill="#BDBEC0" stroke="#010101" cx="396.099" cy="215.667" rx="25.645" ry="7.553"/>
</g>
</svg>
