<?xml version="1.0" encoding="UTF-8" standalone="no"?>
<!-- Created with Inkscape (http://www.inkscape.org/) -->
<svg
   xmlns:dc="http://purl.org/dc/elements/1.1/"
   xmlns:cc="http://web.resource.org/cc/"
   xmlns:rdf="http://www.w3.org/1999/02/22-rdf-syntax-ns#"
   xmlns:svg="http://www.w3.org/2000/svg"
   xmlns="http://www.w3.org/2000/svg"
   xmlns:sodipodi="http://inkscape.sourceforge.net/DTD/sodipodi-0.dtd"
   xmlns:inkscape="http://www.inkscape.org/namespaces/inkscape"
   version="1.0"
   width="600"
   height="600"
   viewBox="0 0 1 1"
   id="svg2"
   sodipodi:version="0.32"
   inkscape:version="0.43"
   sodipodi:docname="snowflake.svg"
   sodipodi:docbase="Y:\wiki\roadsigns">
  <metadata
     id="metadata6">
    <rdf:RDF>
      <cc:Work
         rdf:about="">
        <dc:format>image/svg+xml</dc:format>
        <dc:type
           rdf:resource="http://purl.org/dc/dcmitype/StillImage" />
      </cc:Work>
    </rdf:RDF>
  </metadata>
  <sodipodi:namedview
     inkscape:window-height="792"
     inkscape:window-width="1152"
     inkscape:pageshadow="2"
     inkscape:pageopacity="0.0"
     borderopacity="1.0"
     bordercolor="#666666"
     pagecolor="#ffffff"
     id="base"
     inkscape:zoom="0.62333333"
     inkscape:cx="250"
     inkscape:cy="300"
     inkscape:window-x="-4"
     inkscape:window-y="-4"
     inkscape:current-layer="svg2" />
  <defs
     id="defs3545" />
  <path
     d="M 0.5,0.041666666 L 0.40458947,0.095938201 L 0.40458947,0.14614663 L 0.46865603,0.1502823 L 0.46589892,0.19352541 L 0.41431194,0.19490396 L 0.3760026,0.22341828 L 0.41431194,0.25265816 L 0.46169068,0.25338372 L 0.46169068,0.27565827 L 0.42758959,0.27703683 L 0.42896814,0.31541871 L 0.46096515,0.31679726 L 0.46169068,0.34320749 L 0.3906588,0.30983194 L 0.38369349,0.38572502 L 0.36141894,0.37527702 L 0.3760026,0.34603715 L 0.3446586,0.32651968 L 0.32514115,0.35713814 L 0.30424517,0.34393303 L 0.32724527,0.3028666 L 0.32514115,0.25338372 L 0.27783497,0.27217559 L 0.25345629,0.31469315 L 0.21304286,0.29590126 L 0.24090418,0.24293572 L 0.19628252,0.21645295 L 0.1029761,0.27007149 L 0.10159754,0.37948524 L 0.14549365,0.40386391 L 0.17959475,0.35300247 L 0.21862964,0.37455146 L 0.19142129,0.41989868 L 0.19628252,0.46655189 L 0.24366129,0.44841302 L 0.26738696,0.40386391 L 0.29104005,0.41634346 L 0.27224819,0.44841302 L 0.30707484,0.46858346 L 0.3237626,0.43658644 L 0.34886683,0.45117012 L 0.28197063,0.49992744 L 0.34886683,0.54868476 L 0.3237626,0.56334099 L 0.30707484,0.53127144 L 0.27224819,0.55151442 L 0.29104005,0.58423696 L 0.26738696,0.59606352 L 0.24366129,0.55151442 L 0.19628252,0.53337553 L 0.19142129,0.58002875 L 0.21862964,0.62530342 L 0.17959475,0.64692496 L 0.14549365,0.59606352 L 0.10159754,0.62116773 L 0.1029761,0.72978338 L 0.19628252,0.78347449 L 0.24090418,0.7576447 L 0.21304286,0.70402616 L 0.25345629,0.68523429 L 0.27783497,0.72775183 L 0.32514115,0.74654372 L 0.32724527,0.69713339 L 0.30424517,0.6559944 L 0.32514115,0.64271673 L 0.3446586,0.67340774 L 0.3760026,0.6538903 L 0.36141894,0.62465042 L 0.38369349,0.61420241 L 0.3906588,0.69009551 L 0.46169068,0.6566474 L 0.46096515,0.68385572 L 0.42896814,0.68458128 L 0.42758959,0.72354361 L 0.46169068,0.72426916 L 0.46169068,0.74654372 L 0.41431194,0.74719672 L 0.3760026,0.77650915 L 0.41431194,0.80502348 L 0.46589892,0.80647461 L 0.46865603,0.84964513 L 0.40458947,0.85450636 L 0.40458947,0.90391668 L 0.5,0.95833333 L 0.59541054,0.90391668 L 0.59541054,0.85450636 L 0.531344,0.84964513 L 0.53410111,0.80647461 L 0.5856881,0.80502348 L 0.62399744,0.77650915 L 0.5856881,0.74719672 L 0.53758378,0.74654372 L 0.53758378,0.72426916 L 0.57175744,0.72354361 L 0.57103189,0.68458128 L 0.53903488,0.68385572 L 0.53758378,0.6566474 L 0.6086882,0.69009551 L 0.61630655,0.61420241 L 0.6385811,0.62465042 L 0.62399744,0.6538903 L 0.65534142,0.67340774 L 0.6741333,0.64271673 L 0.69575485,0.6559944 L 0.67275475,0.69713339 L 0.6741333,0.74654372 L 0.72216506,0.72775183 L 0.74654371,0.68523429 L 0.78695713,0.70402616 L 0.75909579,0.7576447 L 0.80371746,0.78347449 L 0.89702388,0.72978338 L 0.89840246,0.62116773 L 0.85450638,0.59606352 L 0.82040521,0.64692496 L 0.78137037,0.62530342 L 0.80785313,0.58002875 L 0.80371746,0.53337553 L 0.75633871,0.55151442 L 0.73261307,0.59606352 L 0.70823441,0.58423696 L 0.72775184,0.55151442 L 0.69292519,0.53127144 L 0.67623744,0.56334099 L 0.65113321,0.54868476 L 0.71802941,0.49992744 L 0.65113321,0.45117012 L 0.67623744,0.43658644 L 0.69292519,0.46858346 L 0.72775184,0.44841302 L 0.70823441,0.41634346 L 0.73261307,0.40386391 L 0.75633871,0.44841302 L 0.80371746,0.46655189 L 0.80785313,0.41989868 L 0.78137037,0.37455146 L 0.82040521,0.35300247 L 0.85450638,0.40386391 L 0.89840246,0.37948524 L 0.89702388,0.27007149 L 0.80371746,0.21645295 L 0.75909579,0.24293572 L 0.78695713,0.29590126 L 0.74654371,0.31469315 L 0.72216506,0.27217559 L 0.6741333,0.25338372 L 0.67275475,0.3028666 L 0.69575485,0.34393303 L 0.6741333,0.35713814 L 0.65534142,0.32651968 L 0.62399744,0.34603715 L 0.6385811,0.37527702 L 0.61630655,0.38572502 L 0.6086882,0.30983194 L 0.53758378,0.34320749 L 0.53903488,0.31679726 L 0.57103189,0.31541871 L 0.57175744,0.27703683 L 0.53758378,0.27565827 L 0.53758378,0.25338372 L 0.5856881,0.25265816 L 0.62399744,0.22341828 L 0.5856881,0.19490396 L 0.53410111,0.19352541 L 0.531344,0.1502823 L 0.59541054,0.14614663 L 0.59541054,0.095938201 L 0.5,0.041666666 z "
     style="font-style:normal;font-variant:normal;font-weight:normal;font-stretch:normal;letter-spacing:normal;word-spacing:normal;text-anchor:start;fill:#1e1916;fill-opacity:1;stroke:#1e1916;stroke-width:0;stroke-linecap:round;stroke-linejoin:round;stroke-miterlimit:10.43299961;stroke-dasharray:none;stroke-dashoffset:0;stroke-opacity:1"
     id="polyline18" />
</svg>
